<svg width="200" height="200" viewBox="0 0 200 200" fill="none" xmlns="http://www.w3.org/2000/svg">
<circle cx="100" cy="100" r="100" fill="white"/>
<path d="M159.672 49L111.202 141.417H128.15L177.334 49H159.672Z" fill="#636161"/>
<path d="M65.1243 134.003C62.5163 134.003 60.3963 136.126 60.3963 138.73C60.3963 141.338 62.5163 143.457 65.1243 143.457C67.7323 143.457 69.851 141.338 69.851 138.73C69.851 136.126 67.7323 134.003 65.1243 134.003ZM65.1243 151.563C58.0457 151.563 52.2883 145.81 52.2883 138.73C52.2883 131.653 58.0457 125.894 65.1243 125.894C72.2017 125.894 77.959 131.653 77.959 138.73C77.959 145.81 72.2017 151.563 65.1243 151.563Z" fill="#302E2E"/>
<path d="M77.1333 100.795H52.8333L63.816 82.1056H77.1333V100.795ZM135.856 49.0003H133.883H88.3973L79.748 58.7283V75.4829H57.5907L46.2413 98.1816L23 111.152V141.418H48.0893C47.9533 140.536 47.8613 139.636 47.8613 138.714C47.8613 128.866 55.8467 120.878 65.696 120.878C75.5467 120.878 83.532 128.866 83.532 138.714C83.532 139.636 83.4413 140.536 83.3053 141.418H85.4147H87.388H106.765L155.235 49.0003H135.856Z" fill="#302E2E"/>
<path d="M133.402 141.417H159.415V91.44L133.402 141.417Z" fill="#611229"/>
</svg>
