<svg width="312" height="71" viewBox="0 0 312 71" fill="none" xmlns="http://www.w3.org/2000/svg">
<path d="M93.9727 -1.8938e-06L60.6473 63.5453H72.2993L106.117 -1.8938e-06H93.9727Z" fill="white"/>
<path d="M121.397 26.8308C120.02 26.6375 118.507 27.0735 116.861 28.1374C115.215 29.2014 113.669 30.5454 112.225 32.1654C110.779 33.7868 109.577 35.5041 108.623 37.3188C107.665 39.1348 107.187 40.6948 107.187 42.0001C107.143 43.1148 107.132 44.2268 107.153 45.3401C107.176 46.4534 107.187 47.5654 107.187 48.6788V50.5655C106.831 50.7108 106.319 50.8201 105.653 50.8921C104.985 50.9654 104.252 51.0121 103.451 51.0375C102.649 51.0615 101.871 51.0615 101.116 51.0375C100.359 51.0121 99.7145 50.9521 99.1812 50.8561C99.1358 50.7108 99.0918 49.9014 99.0465 48.4241C99.0025 46.9494 98.9692 45.0615 98.9478 42.7628C98.9252 40.4655 98.9025 37.8641 98.8798 34.9601C98.8585 32.0561 98.8358 29.0935 98.8145 26.0695C98.7905 23.0455 98.7905 20.0561 98.8145 17.1055C98.8358 14.1535 98.8478 11.4921 98.8478 9.12012C98.8478 6.74945 98.8692 4.77745 98.9132 3.20545C98.9585 1.63345 99.0025 0.700118 99.0465 0.410785C99.3585 0.313452 99.8478 0.229449 100.515 0.156116C101.183 0.0841157 101.917 0.0481191 102.716 0.0481191C103.519 0.0481191 104.317 0.0601197 105.12 0.0841197C105.92 0.10812 106.588 0.168117 107.121 0.26545C107.208 3.02412 107.243 5.77078 107.22 8.50412C107.197 11.2388 107.187 13.9841 107.187 16.7415V25.5255C108.121 24.3148 109.043 23.2375 109.956 22.2948C110.868 21.3508 111.879 20.5415 112.991 19.8628C114.103 19.1855 115.337 18.6655 116.695 18.3028C118.049 17.9401 119.596 17.7348 121.332 17.6855C121.332 16.6695 121.343 15.2668 121.365 13.4748C121.387 11.6855 121.397 9.88278 121.397 8.06812V3.09612V0.192116C122.775 0.0481163 124.121 0.000119095 125.433 0.0481191C126.747 0.0961191 128.113 0.0961191 129.537 0.0481191C129.715 8.32145 129.795 16.5121 129.771 24.6161C129.748 32.7228 129.715 40.9121 129.671 49.1868V49.9495C129.671 50.2161 129.648 50.5414 129.604 50.9294C128.269 51.0254 126.947 51.0748 125.635 51.0748C124.321 51.0748 122.955 51.0254 121.532 50.9294C121.487 50.5414 121.453 50.1654 121.431 49.8028C121.408 49.4414 121.397 49.0908 121.397 48.7508V29.0801V26.8308Z" fill="white"/>
<path d="M160.361 26.976C159.694 24.2173 159.026 21.508 158.361 18.8467C157.693 16.1867 157.025 13.476 156.358 10.7173C156.091 11.2013 155.723 12.1573 155.257 13.5853C154.789 15.012 154.323 16.524 153.855 18.12C153.389 19.7173 152.978 21.1813 152.622 22.512C152.265 23.844 152.089 24.6773 152.089 25.016C153.466 25.356 154.833 25.6693 156.191 25.96C157.549 26.2507 158.937 26.5893 160.361 26.976ZM174.705 50.6373C174.483 50.6867 174.281 50.736 174.105 50.7827C173.927 50.8333 173.725 50.856 173.503 50.856C172.525 50.9053 171.546 50.9173 170.569 50.892C169.59 50.8693 168.61 50.8813 167.633 50.9293C167.143 50.9293 166.777 50.808 166.533 50.5653C166.287 50.3253 166.099 49.9613 165.965 49.476C165.742 48.6547 165.507 47.82 165.265 46.9733C165.018 46.1267 164.786 45.2667 164.563 44.396C164.074 42.2187 163.207 40.44 161.962 39.0613C160.717 37.6813 159.181 36.5573 157.358 35.6867C155.269 34.6707 152.978 34.2107 150.487 34.3067C149.775 34.356 149.33 34.4413 149.153 34.5613C148.974 34.6827 148.774 35.1053 148.553 35.832C147.885 38.0093 147.227 40.1987 146.583 42.4C145.938 44.6027 145.282 46.7907 144.614 48.9693C144.482 49.4533 144.358 49.816 144.249 50.0573C144.137 50.3 144.003 50.4813 143.847 50.6013C143.691 50.724 143.482 50.796 143.214 50.82C142.947 50.8453 142.59 50.856 142.147 50.856C140.546 50.952 138.966 50.952 137.41 50.856C137.098 50.856 136.797 50.8453 136.509 50.82C136.219 50.796 135.897 50.7827 135.542 50.7827C135.629 50.348 135.698 49.9613 135.742 49.6213C135.785 49.284 135.853 48.9693 135.942 48.6787C138.343 40.7427 140.713 32.94 143.049 25.2707C145.383 17.6013 147.751 9.82267 150.153 1.93467C150.286 1.5 150.397 1.14934 150.487 0.882673C150.575 0.616006 150.686 0.436006 150.821 0.337339C150.953 0.241339 151.142 0.181337 151.387 0.156004C151.631 0.133337 151.975 0.120003 152.421 0.120003H160.561C161.405 0.120003 161.917 0.205339 162.095 0.374672C162.274 0.544006 162.473 1.088 162.697 2.00667C164.519 9.26534 166.321 16.404 168.101 23.42C169.879 30.436 171.659 37.5733 173.438 44.832C173.661 45.6547 173.871 46.4893 174.071 47.336C174.273 48.1827 174.483 49.0173 174.705 49.84C174.749 49.9373 174.761 50.0467 174.738 50.1667C174.717 50.288 174.705 50.4453 174.705 50.6373" fill="white"/>
<path d="M212.4 51.0749H205.261C204.772 51.0749 204.472 50.9176 204.361 50.6016C204.249 50.2882 204.193 49.9376 204.193 49.5496V46.3549C204.193 45.2922 204.149 44.2269 204.06 43.1616C203.705 38.3722 202.786 33.9202 201.304 29.8069C199.818 25.6949 197.593 21.8229 194.625 18.1936C193.917 17.3709 193.141 16.5962 192.301 15.8709C191.458 15.1442 190.616 14.4189 189.774 13.6936C189.553 13.5002 189.31 13.3429 189.044 13.2216C188.778 13.1016 188.469 12.9202 188.114 12.6776C188.069 13.1616 188.025 13.5842 187.982 13.9469C187.936 14.3096 187.914 14.6856 187.914 15.0722C187.87 20.4922 187.837 25.8269 187.814 31.0762C187.792 36.3269 187.737 41.6629 187.648 47.0816V49.4762C187.558 50.1562 187.456 50.5776 187.344 50.7469C187.232 50.9176 186.862 51.0016 186.236 51.0016C184.352 51.0989 182.469 51.0989 180.586 51.0016C179.96 51.0016 179.565 50.9056 179.41 50.7109C179.253 50.5176 179.174 50.0562 179.174 49.3309C179.174 47.6869 179.185 46.0656 179.206 44.4682C179.229 42.8722 179.241 41.2509 179.241 39.6056C179.285 36.3642 179.317 33.1949 179.34 30.0976C179.364 27.0002 179.396 23.8309 179.441 20.5882C179.484 17.1536 179.508 13.7416 179.508 10.3536C179.508 6.96824 179.574 3.55624 179.708 0.120242C182.398 0.0722423 185.112 0.0722423 187.848 0.120242C187.934 0.604242 187.989 1.06424 188.013 1.49891C188.036 1.93491 188.092 2.41891 188.18 2.95091C191.501 4.16024 194.436 5.91491 196.982 8.21357C199.53 10.5122 201.868 13.1856 203.993 16.2336C204.17 13.5242 204.249 10.8509 204.228 8.21357C204.205 5.57624 204.238 2.90424 204.326 0.192243H212.466C212.645 8.37091 212.71 16.4642 212.666 24.4709C212.621 32.4816 212.6 40.5976 212.6 48.8242C212.6 49.1629 212.577 49.5016 212.534 49.8402C212.488 50.1789 212.442 50.5909 212.4 51.0749Z" fill="white"/>
<path d="M226.878 41.5652C228.923 41.5652 230.868 41.0825 232.715 40.1145C234.562 39.1465 236.162 37.8879 237.519 36.3399C238.875 34.7905 239.91 32.9892 240.622 30.9319C241.332 28.8759 241.622 26.7585 241.488 24.5812C241.355 22.5012 240.822 20.4919 239.887 18.5559C238.954 16.6212 237.795 14.9399 236.418 13.5119C235.039 12.0852 233.516 10.9959 231.848 10.2452C230.18 9.49585 228.522 9.26519 226.878 9.55585V41.5652ZM218.671 50.7838C218.626 50.5412 218.58 49.6705 218.538 48.1705C218.492 46.6718 218.46 44.7478 218.438 42.3999C218.415 40.0532 218.404 37.4279 218.404 34.5252V25.6332C218.404 22.6092 218.415 19.6345 218.438 16.7052C218.46 13.7785 218.492 11.1532 218.538 8.83052C218.58 6.50785 218.626 4.58385 218.671 3.05985C218.715 1.53585 218.759 0.653187 218.803 0.41052C219.294 0.363854 219.783 0.314519 220.271 0.265186C220.76 0.217186 221.25 0.169189 221.739 0.119856C223.874 0.0238557 225.987 0.0838528 228.078 0.301186C230.168 0.519853 232.215 1.03985 234.216 1.86252C238.13 3.45852 241.355 5.70919 243.891 8.61185C246.426 11.5159 248.183 15.1945 249.162 19.6452C249.916 23.1292 250.016 26.5399 249.46 29.8799C248.906 33.2185 247.827 36.2559 246.227 38.9892C244.626 41.7225 242.556 44.0692 240.02 46.0292C237.486 47.9892 234.592 49.3572 231.348 50.1292C230.59 50.3252 229.634 50.4812 228.478 50.6012C227.322 50.7238 226.143 50.8198 224.942 50.8932C223.74 50.9652 222.574 50.9905 221.439 50.9652C220.306 50.9412 219.383 50.8812 218.671 50.7838" fill="white"/>
<path d="M276.581 18.9916V27.7023C276.181 27.7996 275.781 27.8956 275.381 27.9916C274.979 28.0903 274.602 28.1863 274.246 28.2823C272.867 28.6223 271.554 29.0943 270.309 29.6983C269.063 30.3036 267.907 31.1129 266.841 32.1303C265.949 33.0009 265.227 33.9569 264.671 34.9956C264.114 36.0369 263.927 37.2596 264.106 38.6609C264.149 39.1956 264.162 39.7263 264.138 40.2596C264.114 40.7916 264.106 41.3476 264.106 41.9276C266.641 42.0729 269.142 42.1223 271.61 42.0729C274.079 42.0263 276.537 42.0489 278.983 42.1463C279.115 42.5343 279.217 43.0903 279.283 43.8156C279.35 44.5409 279.385 45.3156 279.385 46.1383C279.385 46.9623 279.371 47.7836 279.35 48.6063C279.327 49.4303 279.271 50.1063 279.183 50.6369C278.961 50.6863 278.282 50.7369 277.149 50.7836C276.014 50.8329 274.646 50.8809 273.046 50.9289C271.443 50.9769 269.71 51.0129 267.841 51.0369C265.973 51.0623 264.217 51.0623 262.57 51.0369C260.925 51.0129 259.491 50.9903 258.269 50.9649C257.043 50.9409 256.275 50.9063 255.965 50.8556C255.919 50.6636 255.875 49.8396 255.831 48.3876C255.786 46.9356 255.742 45.0743 255.699 42.7996C255.654 40.5249 255.631 37.9609 255.631 35.1049V26.3223V17.4316C255.631 14.5036 255.654 11.8383 255.699 9.43425C255.742 7.02892 255.786 5.01025 255.831 3.37692C255.875 1.74092 255.919 0.704922 255.965 0.264922C256.899 0.0729216 257.855 -0.000414443 258.833 0.0475856C259.811 0.0969189 260.791 0.119587 261.771 0.119587C262.705 0.07292 263.649 0.0595861 264.606 0.0835861C265.561 0.108919 266.527 0.119587 267.507 0.119587H270.478C271.433 0.119587 272.421 0.0969189 273.446 0.0475856H279.317C279.405 1.60892 279.439 3.08492 279.417 4.47559C279.393 5.86492 279.361 7.31559 279.317 8.82759C278.961 8.87825 278.626 8.92625 278.317 8.97559C278.003 9.02359 277.67 9.04759 277.315 9.04759H271.745C269.897 9.04759 268.042 9.07292 266.173 9.12092C265.862 9.12092 265.539 9.13292 265.205 9.15692C264.873 9.18226 264.527 9.19292 264.171 9.19292V22.8383C264.706 22.6463 265.173 22.4276 265.573 22.1863C266.997 21.3636 268.463 20.6969 269.975 20.1889C271.487 19.6809 273.023 19.2823 274.579 18.9916C274.89 18.9436 275.202 18.9316 275.513 18.9556C275.825 18.9809 276.181 18.9916 276.581 18.9916Z" fill="white"/>
<path d="M309.94 42.0007V50.71C309.716 50.7593 308.995 50.8073 307.772 50.8567C306.547 50.906 305.091 50.9407 303.401 50.966C301.711 50.99 299.888 51.0127 297.929 51.0367C295.972 51.062 294.128 51.0753 292.393 51.0753C290.657 51.0753 289.167 51.0487 287.923 51.002C286.677 50.9527 285.899 50.906 285.587 50.8567C285.543 50.71 285.499 49.9127 285.455 48.4607C285.409 47.0087 285.376 45.1353 285.355 42.8353C285.331 40.538 285.308 37.9487 285.288 35.0687C285.264 32.1913 285.244 29.2393 285.22 26.214C285.197 23.19 285.188 20.214 285.188 17.286C285.188 14.3593 285.197 11.71 285.22 9.338C285.244 6.96867 285.264 4.99533 285.288 3.422C285.308 1.85133 285.344 0.894003 285.388 0.555336C285.653 0.459336 286.109 0.374 286.755 0.302C287.4 0.228667 288.111 0.192666 288.891 0.192666C289.668 0.192666 290.468 0.204666 291.292 0.228666C292.115 0.253999 292.837 0.314002 293.461 0.410002C293.461 0.798002 293.469 1.17267 293.493 1.53533C293.516 1.898 293.548 2.274 293.593 2.66067V39.4607C293.593 39.8473 293.603 40.2353 293.627 40.622C293.649 41.01 293.683 41.4687 293.727 42.0007H309.94Z" fill="white"/>
<path d="M99.983 58.1947C100.108 57.22 100.447 56.4387 101.002 55.8507C101.587 55.2253 102.323 54.9133 103.206 54.9133C103.66 54.9133 104.086 54.9973 104.482 55.1627C105.022 55.3853 105.291 55.7027 105.291 56.1187C105.291 56.448 105.147 56.6133 104.856 56.6133C104.751 56.6133 104.639 56.5813 104.519 56.5173L104.46 56.4853L104.203 56.312C104.079 56.2253 103.919 56.1507 103.73 56.0853L103.432 56.0227C103.3 56.0067 103.202 56.0013 103.136 56.0013C102.642 56.0013 102.199 56.1947 101.807 56.5813C101.414 56.968 101.188 57.4267 101.128 57.9573C101.076 58.432 101.051 58.7467 101.051 58.904C101.051 59.888 101.308 60.6507 101.822 61.1947C102.191 61.596 102.652 61.7973 103.206 61.7973C103.264 61.7973 103.378 61.7867 103.542 61.7653C103.884 61.7227 104.158 61.624 104.362 61.4733L104.452 61.4107L104.639 61.28L104.856 61.184C104.89 61.1773 104.922 61.1733 104.955 61.1733C105.08 61.1733 105.188 61.2307 105.282 61.3453C105.374 61.46 105.419 61.5893 105.419 61.732C105.419 61.912 105.34 62.0773 105.183 62.2267C105.136 62.2707 104.987 62.3787 104.736 62.5507C104.408 62.7787 103.895 62.8933 103.195 62.8933C102.187 62.8933 101.383 62.5067 100.783 61.732C100.218 61.0013 99.9337 60.0773 99.9337 58.9573C99.9337 58.7 99.9497 58.4453 99.983 58.1947" fill="white"/>
<path d="M109.987 61.8613C110.672 61.8613 111.203 61.56 111.578 60.9573C111.895 60.4427 112.052 59.7893 112.052 59C112.052 58.0333 111.863 57.2827 111.484 56.7467C111.106 56.2133 110.595 55.9467 109.958 55.9467C109.272 55.9467 108.747 56.2693 108.386 56.9147C108.075 57.452 107.92 58.116 107.92 58.904C107.92 59.7147 108.075 60.3853 108.386 60.9147C108.754 61.5467 109.288 61.8613 109.987 61.8613ZM110.007 54.9133C110.99 54.9133 111.776 55.32 112.37 56.1293C112.922 56.8827 113.199 57.808 113.199 58.904C113.199 60.0093 112.927 60.9333 112.379 61.6787C111.787 62.4893 110.996 62.8933 110.007 62.8933C109.44 62.8933 108.962 62.788 108.572 62.5773C108.183 62.3653 107.823 62.004 107.486 61.4973C107.012 60.7933 106.774 59.9267 106.774 58.892C106.774 57.8613 107.008 56.9947 107.475 56.2907C108.095 55.3747 108.939 54.9133 110.007 54.9133" fill="white"/>
<path d="M121.521 55.1244C121.626 55.2431 121.68 55.3791 121.68 55.5391V62.3031C121.68 62.4684 121.629 62.6057 121.528 62.7151C121.424 62.8271 121.296 62.8831 121.142 62.8831C120.989 62.8831 120.861 62.8271 120.758 62.7151C120.656 62.6057 120.605 62.4684 120.605 62.3031V57.7097L119.328 62.4217C119.244 62.7284 119.074 62.8831 118.825 62.8831C118.536 62.8831 118.345 62.7257 118.261 62.4111L116.976 57.6457V62.3031C116.976 62.4684 116.924 62.6057 116.821 62.7151C116.718 62.8271 116.59 62.8831 116.437 62.8831C116.284 62.8831 116.156 62.8271 116.053 62.7151C115.949 62.6057 115.897 62.4684 115.897 62.3031V55.5391C115.897 55.1444 116.128 54.9471 116.588 54.9471C117.006 54.9471 117.273 55.1564 117.386 55.5751L118.796 60.8484L120.202 55.5751C120.316 55.1564 120.578 54.9471 120.992 54.9471C121.238 54.9471 121.414 55.0057 121.521 55.1244Z" fill="white"/>
<path d="M123.993 55.6348C123.993 55.4628 124.047 55.3202 124.152 55.2055C124.257 55.0908 124.389 55.0335 124.548 55.0335H127.059C127.196 55.0335 127.311 55.0828 127.399 55.1815C127.488 55.2802 127.532 55.4055 127.532 55.5535C127.532 55.7028 127.485 55.8295 127.395 55.9322C127.3 56.0362 127.187 56.0855 127.047 56.0855H125.072V58.3775H126.917C127.056 58.3775 127.176 58.4295 127.276 58.5335C127.375 58.6375 127.424 58.7655 127.424 58.9148C127.424 59.0588 127.375 59.1802 127.276 59.2802C127.179 59.3828 127.061 59.4322 126.929 59.4322H125.072V61.7215H127.136C127.276 61.7215 127.392 61.7735 127.488 61.8788C127.584 61.9815 127.632 62.1082 127.632 62.2602C127.632 62.4108 127.584 62.5335 127.488 62.6295C127.392 62.7255 127.276 62.7748 127.136 62.7748H124.539C124.372 62.7748 124.241 62.7175 124.143 62.6042C124.043 62.4895 123.993 62.3415 123.993 62.1628V55.6348Z" fill="white"/>
<path d="M131.927 58.5489C132.246 58.5489 132.51 58.4289 132.723 58.1876C132.932 57.9463 133.039 57.6529 133.039 57.3063C133.039 56.9609 132.918 56.6716 132.676 56.4383C132.435 56.2049 132.152 56.0849 131.83 56.0849H130.647V58.5489H131.927ZM129.568 55.6343C129.568 55.4636 129.622 55.3196 129.728 55.2049C129.834 55.0903 129.964 55.0329 130.123 55.0329H131.844C132.298 55.0329 132.732 55.1623 133.147 55.4183C133.616 55.7063 133.899 56.0756 133.999 56.5276C134.076 56.8863 134.118 57.1703 134.118 57.3769C134.118 57.9729 133.939 58.4609 133.583 58.8396C133.2 59.2489 132.732 59.4423 132.179 59.4209H131.872L134.047 61.9396C134.139 62.0476 134.184 62.1716 134.184 62.3143C134.184 62.4663 134.12 62.6116 133.987 62.7543C133.908 62.8409 133.8 62.8836 133.663 62.8836C133.498 62.8836 133.355 62.8076 133.236 62.6556L130.647 59.4209V62.3076C130.647 62.4743 130.595 62.6116 130.494 62.7209C130.392 62.8289 130.264 62.8836 130.114 62.8836C129.962 62.8836 129.834 62.8249 129.728 62.7103C129.622 62.5956 129.568 62.4556 129.568 62.2916V55.6343Z" fill="white"/>
<path d="M136.122 58.1947C136.249 57.22 136.588 56.4387 137.142 55.8507C137.728 55.2253 138.462 54.9133 139.346 54.9133C139.8 54.9133 140.225 54.9973 140.621 55.1627C141.161 55.3853 141.43 55.7027 141.43 56.1187C141.43 56.448 141.286 56.6133 140.997 56.6133C140.89 56.6133 140.78 56.5813 140.66 56.5173L140.601 56.4853L140.345 56.312C140.218 56.2253 140.06 56.1507 139.87 56.0853L139.573 56.0227C139.44 56.0067 139.342 56.0013 139.277 56.0013C138.782 56.0013 138.338 56.1947 137.948 56.5813C137.554 56.968 137.328 57.4267 137.269 57.9573C137.217 58.432 137.19 58.7467 137.19 58.904C137.19 59.888 137.448 60.6507 137.962 61.1947C138.33 61.596 138.792 61.7973 139.346 61.7973C139.405 61.7973 139.517 61.7867 139.682 61.7653C140.025 61.7227 140.298 61.624 140.501 61.4733L140.592 61.4107L140.78 61.28L140.997 61.184C141.029 61.1773 141.062 61.1733 141.094 61.1733C141.22 61.1733 141.329 61.2307 141.422 61.3453C141.514 61.46 141.56 61.5893 141.56 61.732C141.56 61.912 141.481 62.0773 141.322 62.2267C141.276 62.2707 141.128 62.3787 140.878 62.5507C140.548 62.7787 140.034 62.8933 139.336 62.8933C138.328 62.8933 137.524 62.5067 136.924 61.732C136.357 61.0013 136.074 60.0773 136.074 58.9573C136.074 58.7 136.09 58.4453 136.122 58.1947" fill="white"/>
<path d="M143.152 55.5489C143.152 55.3836 143.204 55.2463 143.311 55.1343C143.418 55.0236 143.547 54.9676 143.7 54.9676C143.847 54.9676 143.97 55.0249 144.074 55.1396C144.178 55.2543 144.23 55.3903 144.23 55.5489V62.3036C144.23 62.4676 144.178 62.6063 144.074 62.7183C143.97 62.8276 143.843 62.8836 143.69 62.8836C143.536 62.8836 143.408 62.8276 143.307 62.7183C143.203 62.6063 143.152 62.4676 143.152 62.3036V55.5489Z" fill="white"/>
<path d="M150.316 60.14L149.072 56.252L147.806 60.14H150.316ZM148.282 55.6347C148.44 55.168 148.694 54.9373 149.043 54.9373C149.426 54.9373 149.695 55.168 149.852 55.6347L152.018 62.0227C152.059 62.1373 152.078 62.252 152.078 62.3667C152.078 62.7107 151.899 62.884 151.542 62.884C151.318 62.884 151.159 62.748 151.066 62.476L150.634 61.1733H147.506L147.066 62.4867C146.975 62.752 146.81 62.884 146.572 62.884C146.216 62.884 146.038 62.6947 146.038 62.3133C146.038 62.2333 146.058 62.1373 146.098 62.0227L148.282 55.6347Z" fill="white"/>
<path d="M154.143 55.528C154.143 55.356 154.194 55.2147 154.291 55.104C154.393 54.992 154.519 54.9373 154.677 54.9373C154.795 54.9373 154.905 54.9787 155.005 55.064C155.05 55.0933 155.089 55.14 155.123 55.2053L158.771 60.7853V55.528C158.771 55.364 158.822 55.2227 158.926 55.1093C159.029 54.9947 159.155 54.9373 159.305 54.9373C159.447 54.9373 159.566 54.9947 159.663 55.1093C159.759 55.2227 159.809 55.364 159.809 55.528V62.3013C159.809 62.46 159.765 62.5933 159.675 62.7C159.587 62.808 159.47 62.8693 159.326 62.884C159.123 62.884 158.966 62.796 158.853 62.6213L155.222 57.0827V62.3067C155.222 62.4693 155.171 62.6067 155.071 62.7187C154.973 62.828 154.845 62.884 154.694 62.884C154.541 62.884 154.41 62.8253 154.303 62.7107C154.197 62.596 154.143 62.4547 154.143 62.2893V55.528Z" fill="white"/>
<path d="M165.621 55.0332C165.76 55.0332 165.873 55.0852 165.967 55.1865C166.059 55.2892 166.104 55.4159 166.104 55.5639C166.104 55.7145 166.056 55.8385 165.961 55.9372C165.867 56.0372 165.749 56.0852 165.611 56.0852H164.316V62.2705C164.316 62.4359 164.265 62.5732 164.167 62.6839C164.068 62.7945 163.943 62.8505 163.792 62.8505C163.633 62.8505 163.504 62.7945 163.407 62.6839C163.308 62.5732 163.259 62.4319 163.259 62.2612V56.0852H161.973C161.835 56.0852 161.72 56.0359 161.632 55.9319C161.543 55.8279 161.497 55.6999 161.497 55.5492C161.497 55.3972 161.544 55.2759 161.637 55.1772C161.729 55.0812 161.844 55.0332 161.983 55.0332H165.621Z" fill="white"/>
<path d="M168.032 55.6348C168.032 55.4628 168.084 55.3202 168.19 55.2055C168.295 55.0908 168.428 55.0335 168.586 55.0335H171.098C171.235 55.0335 171.347 55.0828 171.438 55.1815C171.526 55.2802 171.571 55.4055 171.571 55.5535C171.571 55.7028 171.524 55.8295 171.432 55.9322C171.339 56.0362 171.224 56.0855 171.084 56.0855H169.11V58.3775H170.956C171.095 58.3775 171.214 58.4295 171.314 58.5335C171.411 58.6375 171.462 58.7655 171.462 58.9148C171.462 59.0588 171.412 59.1802 171.314 59.2802C171.215 59.3828 171.099 59.4322 170.967 59.4322H169.11V61.7215H171.175C171.314 61.7215 171.431 61.7735 171.526 61.8788C171.622 61.9815 171.67 62.1082 171.67 62.2602C171.67 62.4108 171.622 62.5335 171.526 62.6295C171.431 62.7255 171.314 62.7748 171.175 62.7748H168.575C168.411 62.7748 168.279 62.7175 168.179 62.6042C168.08 62.4895 168.032 62.3415 168.032 62.1628V55.6348Z" fill="white"/>
<path d="M173.301 61.6894C173.359 61.4108 173.515 61.2708 173.766 61.2708C173.883 61.2708 173.99 61.2961 174.082 61.3454L174.319 61.4734L174.427 61.5281C174.775 61.7001 175.115 61.7868 175.446 61.7868C175.815 61.7868 176.125 61.6628 176.375 61.4161C176.625 61.1681 176.751 60.8428 176.751 60.4414C176.751 59.9348 176.434 59.5641 175.801 59.3348L174.942 59.0228C174.533 58.8721 174.198 58.6828 173.934 58.4521C173.762 58.3094 173.626 58.1081 173.523 57.8508C173.422 57.5934 173.371 57.3374 173.371 57.0868C173.371 56.4054 173.614 55.8694 174.102 55.4734C174.543 55.1081 175.053 54.9254 175.633 54.9254C175.983 54.9254 176.326 54.9948 176.662 55.1294C177.162 55.3374 177.413 55.5921 177.413 55.8921C177.413 56.2588 177.251 56.4414 176.929 56.4414C176.843 56.4414 176.758 56.4201 176.67 56.3774L176.454 56.2694L176.295 56.1828L176.187 56.1401L176.058 56.0854C175.921 56.0308 175.762 56.0014 175.585 56.0014C175.314 56.0014 175.07 56.0908 174.853 56.2694C174.615 56.4708 174.497 56.7108 174.497 56.9908C174.497 57.3694 174.709 57.6574 175.129 57.8508C175.215 57.8868 175.381 57.9548 175.623 58.0534L175.939 58.1841L176.207 58.2801C177.307 58.6814 177.858 59.3668 177.858 60.3348V60.6134L177.789 60.9908C177.67 61.5774 177.363 62.0588 176.869 62.4321C176.481 62.7254 176.022 62.8721 175.495 62.8721C174.823 62.8721 174.266 62.7441 173.825 62.4868C173.495 62.2988 173.318 62.0881 173.29 61.8508L173.301 61.6894Z" fill="white"/>
<path d="M189.443 55.1244C189.548 55.2431 189.602 55.3791 189.602 55.5391V62.3031C189.602 62.4684 189.55 62.6057 189.447 62.7151C189.346 62.8271 189.216 62.8831 189.063 62.8831C188.911 62.8831 188.782 62.8271 188.679 62.7151C188.576 62.6057 188.524 62.4684 188.524 62.3031V57.7097L187.248 62.4217C187.163 62.7284 186.995 62.8831 186.746 62.8831C186.455 62.8831 186.267 62.7257 186.183 62.4111L184.896 57.6457V62.3031C184.896 62.4684 184.844 62.6057 184.743 62.7151C184.638 62.8271 184.511 62.8831 184.358 62.8831C184.204 62.8831 184.078 62.8271 183.972 62.7151C183.87 62.6057 183.819 62.4684 183.819 62.3031V55.5391C183.819 55.1444 184.048 54.9471 184.508 54.9471C184.927 54.9471 185.192 55.1564 185.307 55.5751L186.716 60.8484L188.123 55.5751C188.238 55.1564 188.499 54.9471 188.914 54.9471C189.159 54.9471 189.335 55.0057 189.443 55.1244Z" fill="white"/>
<path d="M191.914 55.6348C191.914 55.4628 191.966 55.3202 192.073 55.2055C192.178 55.0908 192.31 55.0335 192.469 55.0335H194.979C195.117 55.0335 195.231 55.0828 195.321 55.1815C195.41 55.2802 195.453 55.4055 195.453 55.5535C195.453 55.7028 195.407 55.8295 195.314 55.9322C195.222 56.0362 195.106 56.0855 194.967 56.0855H192.993V58.3775H194.838C194.978 58.3775 195.098 58.4295 195.197 58.5335C195.295 58.6375 195.345 58.7655 195.345 58.9148C195.345 59.0588 195.295 59.1802 195.197 59.2802C195.098 59.3828 194.983 59.4322 194.85 59.4322H192.993V61.7215H195.058C195.197 61.7215 195.314 61.7735 195.41 61.8788C195.503 61.9815 195.553 62.1082 195.553 62.2602C195.553 62.4108 195.503 62.5335 195.41 62.6295C195.314 62.7255 195.197 62.7748 195.058 62.7748H192.458C192.294 62.7748 192.163 62.7175 192.062 62.6042C191.965 62.4895 191.914 62.3415 191.914 62.1628V55.6348Z" fill="white"/>
<path d="M199.849 58.5489C200.165 58.5489 200.43 58.4289 200.642 58.1876C200.854 57.9463 200.96 57.6529 200.96 57.3063C200.96 56.9609 200.84 56.6716 200.598 56.4383C200.356 56.2049 200.073 56.0849 199.749 56.0849H198.568V58.5489H199.849ZM197.489 55.6343C197.489 55.4636 197.544 55.3196 197.649 55.2049C197.754 55.0903 197.885 55.0329 198.044 55.0329H199.764C200.218 55.0329 200.654 55.1623 201.069 55.4183C201.537 55.7063 201.821 56.0756 201.92 56.5276C201.997 56.8863 202.037 57.1703 202.037 57.3769C202.037 57.9729 201.86 58.4609 201.502 58.8396C201.121 59.2489 200.654 59.4423 200.098 59.4209H199.793L201.969 61.9396C202.06 62.0476 202.106 62.1716 202.106 62.3143C202.106 62.4663 202.041 62.6116 201.909 62.7543C201.829 62.8409 201.721 62.8836 201.582 62.8836C201.418 62.8836 201.274 62.8076 201.157 62.6556L198.568 59.4209V62.3076C198.568 62.4743 198.517 62.6116 198.416 62.7209C198.312 62.8289 198.185 62.8836 198.034 62.8836C197.881 62.8836 197.754 62.8249 197.649 62.7103C197.544 62.5956 197.489 62.4556 197.489 62.2916V55.6343Z" fill="white"/>
<path d="M204.044 58.1947C204.17 57.22 204.508 56.4387 205.063 55.8507C205.648 55.2253 206.384 54.9133 207.267 54.9133C207.722 54.9133 208.146 54.9973 208.542 55.1627C209.082 55.3853 209.352 55.7027 209.352 56.1187C209.352 56.448 209.207 56.6133 208.916 56.6133C208.811 56.6133 208.699 56.5813 208.58 56.5173L208.52 56.4853L208.264 56.312C208.139 56.2253 207.98 56.1507 207.79 56.0853L207.494 56.0227C207.362 56.0067 207.262 56.0013 207.196 56.0013C206.703 56.0013 206.259 56.1947 205.867 56.5813C205.475 56.968 205.25 57.4267 205.191 57.9573C205.138 58.432 205.111 58.7467 205.111 58.904C205.111 59.888 205.368 60.6507 205.882 61.1947C206.251 61.596 206.712 61.7973 207.267 61.7973C207.326 61.7973 207.438 61.7867 207.603 61.7653C207.946 61.7227 208.219 61.624 208.423 61.4733L208.512 61.4107L208.699 61.28L208.916 61.184C208.95 61.1773 208.983 61.1733 209.016 61.1733C209.14 61.1733 209.25 61.2307 209.343 61.3453C209.434 61.46 209.48 61.5893 209.48 61.732C209.48 61.912 209.403 62.0773 209.243 62.2267C209.198 62.2707 209.048 62.3787 208.798 62.5507C208.468 62.7787 207.956 62.8933 207.255 62.8933C206.247 62.8933 205.444 62.5067 204.844 61.732C204.278 61.0013 203.995 60.0773 203.995 58.9573C203.995 58.7 204.011 58.4453 204.044 58.1947" fill="white"/>
<path d="M214.857 60.14L213.613 56.252L212.346 60.14H214.857ZM212.822 55.6347C212.981 55.168 213.234 54.9373 213.583 54.9373C213.966 54.9373 214.235 55.168 214.393 55.6347L216.558 62.0227C216.599 62.1373 216.617 62.252 216.617 62.3667C216.617 62.7107 216.439 62.884 216.082 62.884C215.857 62.884 215.699 62.748 215.606 62.476L215.174 61.1733H212.046L211.606 62.4867C211.515 62.752 211.35 62.884 211.113 62.884C210.757 62.884 210.578 62.6947 210.578 62.3133C210.578 62.2333 210.597 62.1373 210.637 62.0227L212.822 55.6347Z" fill="white"/>
<path d="M218.684 55.528C218.684 55.356 218.734 55.2147 218.832 55.104C218.932 54.992 219.058 54.9373 219.217 54.9373C219.336 54.9373 219.445 54.9787 219.545 55.064C219.59 55.0933 219.629 55.14 219.662 55.2053L223.312 60.7853V55.528C223.312 55.364 223.362 55.2227 223.466 55.1093C223.569 54.9947 223.696 54.9373 223.844 54.9373C223.988 54.9373 224.105 54.9947 224.204 55.1093C224.3 55.2227 224.349 55.364 224.349 55.528V62.3013C224.349 62.46 224.304 62.5933 224.214 62.7C224.128 62.808 224.01 62.8693 223.866 62.884C223.664 62.884 223.506 62.796 223.393 62.6213L219.761 57.0827V62.3067C219.761 62.4693 219.712 62.6067 219.612 62.7187C219.512 62.828 219.385 62.884 219.233 62.884C219.081 62.884 218.95 62.8253 218.844 62.7107C218.737 62.596 218.684 62.4547 218.684 62.2893V55.528Z" fill="white"/>
<path d="M230.16 55.0332C230.299 55.0332 230.413 55.0852 230.507 55.1865C230.599 55.2892 230.644 55.4159 230.644 55.5639C230.644 55.7145 230.596 55.8385 230.501 55.9372C230.405 56.0372 230.288 56.0852 230.149 56.0852H228.855V62.2705C228.855 62.4359 228.805 62.5732 228.707 62.6839C228.608 62.7945 228.483 62.8505 228.332 62.8505C228.173 62.8505 228.044 62.7945 227.945 62.6839C227.847 62.5732 227.799 62.4319 227.799 62.2612V56.0852H226.512C226.373 56.0852 226.26 56.0359 226.171 55.9319C226.083 55.8279 226.037 55.6999 226.037 55.5492C226.037 55.3972 226.083 55.2759 226.176 55.1772C226.268 55.0812 226.384 55.0332 226.521 55.0332H230.16Z" fill="white"/>
<path d="M232.561 55.5489C232.561 55.3836 232.614 55.2463 232.721 55.1343C232.828 55.0236 232.957 54.9676 233.11 54.9676C233.257 54.9676 233.381 55.0249 233.484 55.1396C233.589 55.2543 233.641 55.3903 233.641 55.5489V62.3036C233.641 62.4676 233.589 62.6063 233.484 62.7183C233.381 62.8276 233.254 62.8836 233.101 62.8836C232.948 62.8836 232.818 62.8276 232.717 62.7183C232.613 62.6063 232.561 62.4676 232.561 62.3036V55.5489Z" fill="white"/>
<path d="M235.953 55.5384C235.953 55.3744 236.006 55.233 236.112 55.1197C236.22 55.005 236.349 54.9477 236.502 54.9477C236.648 54.9477 236.772 55.005 236.876 55.1197C236.98 55.233 237.03 55.3704 237.03 55.5277V61.7224H238.861C239 61.7224 239.122 61.773 239.232 61.877C239.34 61.9784 239.393 62.105 239.393 62.2544C239.393 62.4024 239.342 62.5264 239.24 62.6264C239.138 62.7264 239.017 62.7757 238.878 62.7757H236.586C236.334 62.7757 236.166 62.7104 236.082 62.5824C235.996 62.4544 235.953 62.2984 235.953 62.1197V55.5384Z" fill="white"/>
<path d="M241.271 55.6348C241.271 55.4628 241.324 55.3202 241.43 55.2055C241.535 55.0908 241.667 55.0335 241.824 55.0335H244.336C244.474 55.0335 244.587 55.0828 244.676 55.1815C244.766 55.2802 244.81 55.4055 244.81 55.5535C244.81 55.7028 244.763 55.8295 244.672 55.9322C244.578 56.0362 244.464 56.0855 244.324 56.0855H242.35V58.3775H244.195C244.334 58.3775 244.452 58.4295 244.552 58.5335C244.651 58.6375 244.702 58.7655 244.702 58.9148C244.702 59.0588 244.652 59.1802 244.552 59.2802C244.455 59.3828 244.339 59.4322 244.207 59.4322H242.35V61.7215H244.414C244.552 61.7215 244.67 61.7735 244.766 61.8788C244.86 61.9815 244.91 62.1082 244.91 62.2602C244.91 62.4108 244.86 62.5335 244.766 62.6295C244.67 62.7255 244.552 62.7748 244.414 62.7748H241.815C241.65 62.7748 241.518 62.7175 241.419 62.6042C241.32 62.4895 241.271 62.3415 241.271 62.1628V55.6348Z" fill="white"/>
<path d="M246.54 61.6894C246.599 61.4108 246.754 61.2708 247.004 61.2708C247.123 61.2708 247.228 61.2961 247.322 61.3454L247.558 61.4734L247.667 61.5281C248.015 61.7001 248.355 61.7868 248.684 61.7868C249.055 61.7868 249.363 61.6628 249.615 61.4161C249.864 61.1681 249.991 60.8428 249.991 60.4414C249.991 59.9348 249.674 59.5641 249.04 59.3348L248.18 59.0228C247.772 58.8721 247.436 58.6828 247.174 58.4521C247 58.3094 246.864 58.1081 246.762 57.8508C246.66 57.5934 246.61 57.3374 246.61 57.0868C246.61 56.4054 246.852 55.8694 247.34 55.4734C247.782 55.1081 248.292 54.9254 248.872 54.9254C249.223 54.9254 249.566 54.9948 249.902 55.1294C250.402 55.3374 250.652 55.5921 250.652 55.8921C250.652 56.2588 250.491 56.4414 250.167 56.4414C250.082 56.4414 249.998 56.4201 249.91 56.3774L249.692 56.2694L249.535 56.1828L249.427 56.1401L249.296 56.0854C249.159 56.0308 249.002 56.0014 248.823 56.0014C248.554 56.0014 248.308 56.0908 248.091 56.2694C247.855 56.4708 247.735 56.7108 247.735 56.9908C247.735 57.3694 247.947 57.6574 248.368 57.8508C248.455 57.8868 248.619 57.9548 248.863 58.0534L249.179 58.1841L249.447 58.2801C250.547 58.6814 251.096 59.3668 251.096 60.3348V60.6134L251.028 60.9908C250.908 61.5774 250.603 62.0588 250.108 62.4321C249.719 62.7254 249.26 62.8721 248.735 62.8721C248.062 62.8721 247.506 62.7441 247.064 62.4868C246.735 62.2988 246.556 62.0881 246.53 61.8508L246.54 61.6894Z" fill="white"/>
<path d="M258.547 61.722C259.066 61.722 259.52 61.538 259.911 61.174C260.303 60.8087 260.527 60.3487 260.587 59.79C260.639 59.31 260.666 58.9807 260.666 58.802C260.666 58.0433 260.488 57.414 260.132 56.914C259.746 56.362 259.214 56.0847 258.536 56.0847H257.324V61.722H258.547ZM256.247 55.602C256.247 55.2233 256.426 55.0327 256.782 55.0327H258.575C259.551 55.0327 260.34 55.398 260.942 56.13C261.522 56.8327 261.812 57.718 261.812 58.786C261.812 60.1473 261.447 61.194 260.716 61.926C260.147 62.4927 259.44 62.7753 258.59 62.7753H256.82C256.655 62.7753 256.519 62.7233 256.41 62.6193C256.302 62.5167 256.247 62.378 256.247 62.2047V55.602Z" fill="white"/>
<path d="M263.859 55.6348C263.859 55.4628 263.911 55.3202 264.017 55.2055C264.122 55.0908 264.254 55.0335 264.411 55.0335H266.923C267.061 55.0335 267.174 55.0828 267.265 55.1815C267.353 55.2802 267.397 55.4055 267.397 55.5535C267.397 55.7028 267.351 55.8295 267.259 55.9322C267.165 56.0362 267.05 56.0855 266.91 56.0855H264.937V58.3775H266.782C266.922 58.3775 267.041 58.4295 267.141 58.5335C267.238 58.6375 267.289 58.7655 267.289 58.9148C267.289 59.0588 267.239 59.1802 267.141 59.2802C267.042 59.3828 266.926 59.4322 266.794 59.4322H264.937V61.7215H267.002C267.141 61.7215 267.258 61.7735 267.353 61.8788C267.449 61.9815 267.497 62.1082 267.497 62.2602C267.497 62.4108 267.449 62.5335 267.353 62.6295C267.258 62.7255 267.141 62.7748 267.002 62.7748H264.402C264.237 62.7748 264.106 62.7175 264.006 62.6042C263.907 62.4895 263.859 62.3415 263.859 62.1628V55.6348Z" fill="white"/>
<path d="M276.56 60.14L275.315 56.252L274.049 60.14H276.56ZM274.525 55.6347C274.684 55.168 274.937 54.9373 275.285 54.9373C275.668 54.9373 275.939 55.168 276.096 55.6347L278.261 62.0227C278.303 62.1373 278.32 62.252 278.32 62.3667C278.32 62.7107 278.143 62.884 277.785 62.884C277.56 62.884 277.403 62.748 277.309 62.476L276.877 61.1733H273.749L273.309 62.4867C273.219 62.752 273.053 62.884 272.815 62.884C272.46 62.884 272.281 62.6947 272.281 62.3133C272.281 62.2333 272.3 62.1373 272.34 62.0227L274.525 55.6347Z" fill="white"/>
<path d="M282.779 61.7442C283.115 61.7442 283.404 61.6228 283.644 61.3828C283.884 61.1428 284.004 60.8428 284.004 60.4855C284.004 60.1268 283.884 59.8255 283.644 59.5762C283.404 59.3295 283.119 59.2055 282.789 59.2055H281.464V61.7442H282.779ZM282.304 58.2482C282.607 58.2482 282.876 58.1482 283.111 57.9415C283.344 57.7388 283.461 57.4788 283.461 57.1575C283.461 56.8562 283.353 56.6042 283.135 56.3962C282.917 56.1895 282.669 56.0855 282.393 56.0855H281.464V58.2482H282.304ZM280.385 55.6028C280.385 55.2228 280.576 55.0335 280.949 55.0335H282.501C282.911 55.0335 283.303 55.1482 283.679 55.3775C284.1 55.6348 284.351 55.9655 284.429 56.3668C284.488 56.6735 284.519 56.9082 284.519 57.0655C284.519 57.7042 284.275 58.1762 283.787 58.4855L283.58 58.5828C284.093 58.6402 284.509 58.9215 284.824 59.4322C284.996 59.7042 285.083 60.0535 285.083 60.4855C285.083 61.2308 284.835 61.8228 284.34 62.2602C283.952 62.6042 283.476 62.7748 282.917 62.7748H280.96C280.577 62.7748 280.385 62.5788 280.385 62.1842V55.6028Z" fill="white"/>
<path d="M290.725 60.14L289.48 56.252L288.215 60.14H290.725ZM288.691 55.6347C288.848 55.168 289.101 54.9373 289.451 54.9373C289.832 54.9373 290.103 55.168 290.261 55.6347L292.427 62.0227C292.467 62.1373 292.485 62.252 292.485 62.3667C292.485 62.7107 292.308 62.884 291.951 62.884C291.725 62.884 291.567 62.748 291.475 62.476L291.043 61.1733H287.915L287.475 62.4867C287.383 62.752 287.217 62.884 286.98 62.884C286.624 62.884 286.445 62.6947 286.445 62.3133C286.445 62.2333 286.467 62.1373 286.505 62.0227L288.691 55.6347Z" fill="white"/>
<path d="M294.197 61.6894C294.257 61.4108 294.41 61.2708 294.661 61.2708C294.779 61.2708 294.885 61.2961 294.978 61.3454L295.215 61.4734L295.325 61.5281C295.673 61.7001 296.011 61.7868 296.341 61.7868C296.711 61.7868 297.019 61.6628 297.27 61.4161C297.521 61.1681 297.646 60.8428 297.646 60.4414C297.646 59.9348 297.33 59.5641 296.698 59.3348L295.835 59.0228C295.429 58.8721 295.093 58.6828 294.829 58.4521C294.658 58.3094 294.519 58.1081 294.418 57.8508C294.317 57.5934 294.265 57.3374 294.265 57.0868C294.265 56.4054 294.509 55.8694 294.997 55.4734C295.439 55.1081 295.949 54.9254 296.53 54.9254C296.879 54.9254 297.222 54.9948 297.558 55.1294C298.058 55.3374 298.307 55.5921 298.307 55.8921C298.307 56.2588 298.147 56.4414 297.825 56.4414C297.738 56.4414 297.653 56.4201 297.567 56.3774L297.35 56.2694L297.191 56.1828L297.083 56.1401L296.954 56.0854C296.817 56.0308 296.658 56.0014 296.481 56.0014C296.209 56.0014 295.966 56.0908 295.749 56.2694C295.511 56.4708 295.391 56.7108 295.391 56.9908C295.391 57.3694 295.603 57.6574 296.026 57.8508C296.111 57.8868 296.275 57.9548 296.519 58.0534L296.835 58.1841L297.102 58.2801C298.203 58.6814 298.754 59.3668 298.754 60.3348V60.6134L298.683 60.9908C298.565 61.5774 298.259 62.0588 297.766 62.4321C297.377 62.7254 296.918 62.8721 296.391 62.8721C295.719 62.8721 295.163 62.7441 294.721 62.4868C294.391 62.2988 294.213 62.0881 294.186 61.8508L294.197 61.6894Z" fill="white"/>
<path d="M303.716 55.0332C303.855 55.0332 303.968 55.0852 304.062 55.1865C304.154 55.2892 304.199 55.4159 304.199 55.5639C304.199 55.7145 304.152 55.8385 304.056 55.9372C303.962 56.0372 303.844 56.0852 303.706 56.0852H302.411V62.2705C302.411 62.4359 302.36 62.5732 302.263 62.6839C302.164 62.7945 302.038 62.8505 301.887 62.8505C301.73 62.8505 301.6 62.7945 301.502 62.6839C301.403 62.5732 301.354 62.4319 301.354 62.2612V56.0852H300.068C299.93 56.0852 299.815 56.0359 299.727 55.9319C299.638 55.8279 299.594 55.6999 299.594 55.5492C299.594 55.3972 299.639 55.2759 299.732 55.1772C299.824 55.0812 299.939 55.0332 300.078 55.0332H303.716Z" fill="white"/>
<path d="M308.56 61.8613C309.247 61.8613 309.775 61.56 310.151 60.9573C310.468 60.4427 310.627 59.7893 310.627 59C310.627 58.0333 310.436 57.2827 310.059 56.7467C309.679 56.2133 309.169 55.9467 308.531 55.9467C307.844 55.9467 307.32 56.2693 306.959 56.9147C306.648 57.452 306.493 58.116 306.493 58.904C306.493 59.7147 306.648 60.3853 306.959 60.9147C307.327 61.5467 307.861 61.8613 308.56 61.8613ZM308.58 54.9133C309.561 54.9133 310.349 55.32 310.943 56.1293C311.496 56.8827 311.772 57.808 311.772 58.904C311.772 60.0093 311.499 60.9333 310.952 61.6787C310.36 62.4893 309.568 62.8933 308.58 62.8933C308.012 62.8933 307.535 62.788 307.147 62.5773C306.757 62.3653 306.395 62.004 306.059 61.4973C305.585 60.7933 305.348 59.9267 305.348 58.892C305.348 57.8613 305.581 56.9947 306.049 56.2907C306.668 55.3747 307.512 54.9133 308.58 54.9133" fill="white"/>
<path d="M28.9636 58.4473C27.1703 58.4473 25.713 59.906 25.713 61.698C25.713 63.4886 27.1703 64.9473 28.9636 64.9473C30.7556 64.9473 32.2143 63.4886 32.2143 61.698C32.2143 59.906 30.7556 58.4473 28.9636 58.4473ZM28.9636 70.5206C24.0983 70.5206 20.137 66.5646 20.137 61.698C20.137 56.83 24.0983 52.8713 28.9636 52.8713C33.829 52.8713 37.789 56.83 37.789 61.698C37.789 66.5646 33.829 70.5206 28.9636 70.5206Z" fill="white"/>
<path d="M37.2213 35.6133H20.5133L28.064 22.7627H37.2213V35.6133ZM77.5973 8.87386e-06H76.2413H44.9667L39.02 6.68801V18.2093H23.784L15.9787 33.816L0 42.7347V63.5453H17.2507C17.1573 62.94 17.0933 62.32 17.0933 61.6867C17.0933 54.9133 22.584 49.4213 29.3573 49.4213C36.1307 49.4213 41.6213 54.9133 41.6213 61.6867C41.6213 62.32 41.5573 62.94 41.4653 63.5453H42.9147H44.2707H57.5947L90.9213 8.87386e-06H77.5973Z" fill="white"/>
<path d="M75.9102 63.5449H93.7968V29.1809L75.9102 63.5449Z" fill="white"/>
</svg>
