<svg width="454" height="103" viewBox="0 0 454 103" fill="none" xmlns="http://www.w3.org/2000/svg">
<path d="M136.672 -4.66402e-06L88.2024 92.4173H105.15L154.334 -4.66402e-06H136.672Z" fill="#636161"/>
<path d="M176.559 39.0221C174.553 38.7421 172.353 39.3754 169.96 40.9221C167.567 42.4701 165.317 44.4235 163.217 46.7808C161.115 49.1395 159.367 51.6368 157.976 54.2754C156.585 56.9141 155.891 59.1848 155.891 61.0848C155.825 62.7048 155.808 64.3221 155.843 65.9408C155.873 67.5608 155.891 69.1781 155.891 70.7968V73.5408C155.372 73.7514 154.629 73.9114 153.659 74.0168C152.689 74.1221 151.621 74.1901 150.457 74.2274C149.292 74.2608 148.16 74.2608 147.06 74.2274C145.96 74.1901 145.023 74.1048 144.247 73.9648C144.181 73.7514 144.116 72.5741 144.053 70.4274C143.988 68.2808 143.939 65.5368 143.907 62.1928C143.873 58.8514 143.841 55.0675 143.809 50.8448C143.777 46.6221 143.745 42.3128 143.713 37.9128C143.68 33.5168 143.68 29.1701 143.713 24.8768C143.745 20.5848 143.761 16.7141 143.761 13.2648C143.761 9.81812 143.793 6.94879 143.859 4.66079C143.923 2.37545 143.988 1.01945 144.053 0.596786C144.504 0.456786 145.217 0.332785 146.188 0.227452C147.157 0.122119 148.225 0.068786 149.389 0.068786C150.555 0.068786 151.719 0.0874538 152.883 0.122121C154.047 0.158121 155.017 0.246123 155.793 0.386123C155.923 4.39679 155.972 8.39279 155.94 12.3675C155.905 16.3448 155.891 20.3368 155.891 24.3488V37.1221C157.249 35.3635 158.591 33.7968 159.917 32.4248C161.243 31.0515 162.715 29.8741 164.333 28.8875C165.948 27.9035 167.744 27.1461 169.719 26.6181C171.691 26.0901 173.939 25.7928 176.461 25.7208C176.461 24.2435 176.476 22.2035 176.509 19.5981C176.541 16.9955 176.559 14.3728 176.559 11.7341V4.50345V0.280786C178.563 0.0687865 180.52 -0.000547373 182.429 0.068786C184.336 0.139453 186.325 0.139453 188.396 0.068786C188.655 12.1035 188.768 24.0154 188.736 35.8021C188.703 47.5901 188.655 59.5008 188.591 71.5354V72.6434C188.591 73.0314 188.557 73.5061 188.493 74.0688C186.553 74.2088 184.628 74.2794 182.72 74.2794C180.811 74.2794 178.823 74.2088 176.753 74.0688C176.688 73.5061 176.639 72.9608 176.607 72.4328C176.573 71.9048 176.559 71.3954 176.559 70.9021V42.2941V39.0221Z" fill="#611229"/>
<path d="M233.225 39.233C232.254 35.2223 231.285 31.281 230.314 27.4103C229.343 23.5397 228.373 19.5983 227.403 15.5877C227.015 16.2917 226.481 17.681 225.802 19.757C225.122 21.833 224.443 24.0317 223.765 26.3543C223.085 28.677 222.486 30.8063 221.97 32.741C221.45 34.677 221.193 35.8917 221.193 36.3823C223.197 36.8757 225.186 37.333 227.161 37.7557C229.133 38.177 231.154 38.6703 233.225 39.233ZM254.086 73.6463C253.762 73.717 253.471 73.789 253.214 73.857C252.954 73.929 252.663 73.9637 252.341 73.9637C250.917 74.0343 249.493 74.053 248.071 74.0157C246.647 73.9823 245.223 73.9997 243.802 74.0677C243.089 74.0677 242.555 73.8943 242.201 73.541C241.843 73.189 241.57 72.6623 241.375 71.957C241.051 70.761 240.711 69.5477 240.357 68.3157C240.001 67.085 239.661 65.8357 239.338 64.5677C238.625 61.401 237.363 58.8157 235.554 56.809C233.742 54.8037 231.51 53.1677 228.858 51.8997C225.817 50.4223 222.486 49.7543 218.863 49.8957C217.829 49.9663 217.181 50.0903 216.923 50.2637C216.665 50.441 216.373 51.0557 216.05 52.1117C215.081 55.2783 214.125 58.4637 213.187 61.665C212.25 64.869 211.295 68.0517 210.326 71.2183C210.131 71.9237 209.953 72.4517 209.791 72.8023C209.63 73.1543 209.435 73.4197 209.21 73.5943C208.982 73.7703 208.675 73.8757 208.287 73.9103C207.899 73.9463 207.381 73.9637 206.735 73.9637C204.406 74.105 202.11 74.105 199.846 73.9637C199.393 73.9637 198.955 73.9463 198.535 73.9103C198.114 73.8757 197.646 73.857 197.129 73.857C197.258 73.225 197.355 72.6623 197.419 72.169C197.483 71.677 197.581 71.2183 197.711 70.7957C201.205 59.2557 204.649 47.9077 208.045 36.753C211.441 25.5983 214.886 14.2863 218.379 2.81434C218.573 2.17967 218.734 1.67167 218.863 1.28367C218.993 0.897002 219.155 0.633005 219.349 0.491672C219.543 0.351672 219.818 0.263669 220.174 0.227669C220.529 0.193002 221.03 0.175672 221.678 0.175672H233.515C234.745 0.175672 235.489 0.298335 235.747 0.543668C236.005 0.791668 236.297 1.58367 236.621 2.91967C239.273 13.4757 241.893 23.857 244.481 34.061C247.067 44.265 249.655 54.645 252.243 65.2023C252.566 66.3997 252.874 67.613 253.165 68.8437C253.457 70.0757 253.762 71.289 254.086 72.485C254.15 72.6277 254.167 72.7863 254.135 72.9597C254.102 73.1357 254.086 73.3663 254.086 73.6463" fill="#611229"/>
<path d="M308.908 74.2793H298.525C297.813 74.2793 297.376 74.0526 297.215 73.5939C297.053 73.1366 296.972 72.6286 296.972 72.0633V67.4179C296.972 65.8713 296.908 64.3219 296.779 62.7739C296.264 55.8073 294.927 49.3326 292.769 43.3499C290.609 37.3686 287.373 31.7379 283.057 26.4606C282.027 25.2646 280.899 24.1379 279.675 23.0819C278.451 22.0273 277.227 20.9713 276.003 19.9153C275.681 19.6353 275.327 19.4059 274.94 19.2286C274.553 19.0539 274.103 18.7899 273.588 18.4379C273.523 19.1406 273.457 19.7566 273.393 20.2846C273.328 20.8126 273.297 21.3579 273.297 21.9206C273.232 29.8033 273.184 37.5619 273.152 45.1966C273.119 52.8339 273.037 60.5926 272.908 68.4739V71.9579C272.779 72.9433 272.631 73.5593 272.467 73.8059C272.304 74.0526 271.768 74.1753 270.855 74.1753C268.116 74.3139 265.379 74.3139 262.64 74.1753C261.727 74.1753 261.156 74.0339 260.928 73.7513C260.699 73.4726 260.585 72.8033 260.585 71.7473C260.585 69.3553 260.601 66.9966 260.633 64.6739C260.665 62.3513 260.683 59.9939 260.683 57.6006C260.747 52.8873 260.795 48.2766 260.828 43.7726C260.86 39.2699 260.908 34.6593 260.973 29.9433C261.037 24.9473 261.071 19.9859 261.071 15.0593C261.071 10.1339 261.168 5.1726 261.361 0.175272C265.275 0.105939 269.221 0.105939 273.2 0.175272C273.327 0.879272 273.408 1.54727 273.441 2.1806C273.472 2.81394 273.553 3.51794 273.684 4.29127C278.515 6.0526 282.781 8.60327 286.488 11.9459C290.191 15.2886 293.589 19.1766 296.681 23.6099C296.939 19.6686 297.053 15.7819 297.021 11.9459C296.988 8.10994 297.036 4.22327 297.167 0.280603H309.005C309.263 12.1739 309.36 23.9446 309.296 35.5913C309.231 47.2393 309.199 59.0446 309.199 71.0073C309.199 71.5006 309.165 71.9939 309.103 72.4846C309.037 72.9779 308.971 73.5779 308.908 74.2793Z" fill="#611229"/>
<path d="M329.963 60.4511C332.938 60.4511 335.769 59.7485 338.454 58.3405C341.137 56.9325 343.466 55.1045 345.439 52.8511C347.413 50.5991 348.917 47.9791 349.953 44.9858C350.986 41.9965 351.407 38.9165 351.214 35.7498C351.019 32.7245 350.243 29.8031 348.885 26.9871C347.526 24.1738 345.843 21.7285 343.839 19.6511C341.833 17.5765 339.618 15.9925 337.193 14.9005C334.767 13.8111 332.355 13.4765 329.963 13.8978V60.4511ZM318.029 73.8578C317.963 73.5058 317.898 72.2405 317.834 70.0578C317.769 67.8765 317.721 65.0791 317.689 61.6658C317.655 58.2525 317.641 54.4338 317.641 50.2111V37.2805C317.641 32.8831 317.655 28.5551 317.689 24.2965C317.721 20.0391 317.769 16.2205 317.834 12.8418C317.898 9.46447 317.963 6.66714 318.029 4.44981C318.093 2.23247 318.158 0.949809 318.222 0.596476C318.934 0.528476 319.645 0.456474 320.357 0.385808C321.069 0.316474 321.779 0.245806 322.491 0.17514C325.597 0.0338064 328.669 0.121809 331.71 0.439142C334.75 0.755142 337.726 1.51247 340.637 2.70847C346.329 5.03114 351.019 8.30314 354.707 12.5258C358.394 16.7485 360.949 22.0978 362.373 28.5711C363.471 33.6378 363.617 38.5991 362.809 43.4551C361.999 48.3125 360.431 52.7285 358.102 56.7031C355.774 60.6805 352.766 64.0925 349.078 66.9431C345.391 69.7938 341.186 71.7831 336.465 72.9071C335.363 73.1898 333.974 73.4205 332.293 73.5938C330.609 73.7698 328.897 73.9111 327.15 74.0165C325.403 74.1218 323.705 74.1578 322.055 74.1218C320.406 74.0871 319.062 73.9991 318.029 73.8578Z" fill="#611229"/>
<path d="M402.251 27.6212V40.2892C401.669 40.4305 401.086 40.5705 400.505 40.7105C399.922 40.8532 399.373 40.9932 398.855 41.1332C396.85 41.6265 394.941 42.3132 393.13 43.1918C391.318 44.0718 389.638 45.2505 388.085 46.7278C386.79 47.9945 385.739 49.3852 384.931 50.8985C384.121 52.4118 383.847 54.1878 384.106 56.2292C384.17 57.0038 384.187 57.7772 384.155 58.5518C384.121 59.3265 384.106 60.1345 384.106 60.9798C387.794 61.1905 391.433 61.2612 395.022 61.1905C398.613 61.1212 402.186 61.1558 405.745 61.2958C405.939 61.8598 406.085 62.6678 406.181 63.7238C406.278 64.7798 406.327 65.9065 406.327 67.1012C406.327 68.2998 406.31 69.4945 406.278 70.6905C406.245 71.8892 406.165 72.8732 406.035 73.6465C405.711 73.7172 404.726 73.7878 403.077 73.8572C401.426 73.9292 399.438 73.9998 397.109 74.0678C394.779 74.1398 392.257 74.1905 389.541 74.2278C386.823 74.2612 384.267 74.2612 381.874 74.2278C379.481 74.1905 377.394 74.1585 375.615 74.1212C373.835 74.0865 372.721 74.0345 372.269 73.9638C372.203 73.6825 372.138 72.4852 372.074 70.3745C372.009 68.2625 371.945 65.5545 371.881 62.2465C371.815 58.9385 371.783 55.2092 371.783 51.0558V38.2838V25.3518C371.783 21.0945 371.815 17.2172 371.881 13.7198C371.945 10.2238 372.009 7.28783 372.074 4.9105C372.138 2.5345 372.203 1.0265 372.269 0.386498C373.627 0.105165 375.017 -0.000167457 376.441 0.0691659C377.862 0.139833 379.286 0.175835 380.71 0.175835C382.069 0.105168 383.442 0.0878338 384.834 0.1225C386.223 0.1585 387.631 0.175835 389.055 0.175835H393.373C394.763 0.175835 396.202 0.139833 397.691 0.0691659H406.23C406.359 2.34117 406.407 4.4865 406.375 6.50917C406.342 8.5305 406.293 10.6412 406.23 12.8398C405.711 12.9118 405.226 12.9825 404.774 13.0532C404.321 13.1238 403.835 13.1585 403.318 13.1585H395.217C392.531 13.1585 389.831 13.1958 387.114 13.2652C386.661 13.2652 386.193 13.2825 385.707 13.3172C385.222 13.3532 384.721 13.3705 384.203 13.3705V33.2158C384.979 32.9358 385.659 32.6198 386.241 32.2665C388.31 31.0705 390.446 30.1025 392.645 29.3638C394.843 28.6238 397.075 28.0438 399.341 27.6212C399.793 27.5518 400.246 27.5345 400.698 27.5678C401.15 27.6052 401.669 27.6212 402.251 27.6212Z" fill="#611229"/>
<path d="M450.766 61.0846V73.7513C450.442 73.8233 449.391 73.8939 447.613 73.9646C445.833 74.0339 443.714 74.0859 441.257 74.1219C438.797 74.1579 436.146 74.1913 433.301 74.2273C430.453 74.2606 427.769 74.2793 425.246 74.2793C422.723 74.2793 420.555 74.2433 418.746 74.1753C416.934 74.1046 415.801 74.0339 415.35 73.9646C415.285 73.7513 415.219 72.5913 415.155 70.4793C415.09 68.3686 415.042 65.6419 415.01 62.2993C414.977 58.9566 414.945 55.1913 414.913 51.0033C414.879 46.8166 414.847 42.5233 414.815 38.1246C414.782 33.7273 414.767 29.3993 414.767 25.1406C414.767 20.8833 414.782 17.0299 414.815 13.5819C414.847 10.1339 414.879 7.26593 414.913 4.97793C414.945 2.6926 414.993 1.30194 415.058 0.808603C415.446 0.66727 416.109 0.544603 417.047 0.439269C417.985 0.333936 419.019 0.280603 420.153 0.280603C421.283 0.280603 422.447 0.299271 423.646 0.333938C424.842 0.369938 425.893 0.456603 426.799 0.596603C426.799 1.16194 426.814 1.70594 426.849 2.2326C426.879 2.7606 426.929 3.30727 426.993 3.86994V57.3899C426.993 57.9539 427.009 58.5166 427.042 59.0793C427.074 59.6433 427.122 60.3113 427.187 61.0846H450.766Z" fill="#611229"/>
<path d="M145.413 84.6348C145.595 83.2174 146.089 82.0801 146.894 81.2241C147.746 80.3188 148.815 79.8641 150.099 79.8641C150.761 79.8641 151.379 79.9841 151.954 80.2228C152.741 80.5481 153.134 81.0108 153.134 81.6161C153.134 82.0961 152.922 82.3348 152.501 82.3348C152.347 82.3348 152.185 82.2881 152.011 82.1948L151.926 82.1481L151.551 81.8974C151.37 81.7734 151.139 81.6628 150.861 81.5694L150.43 81.4748C150.238 81.4534 150.095 81.4428 149.999 81.4428C149.279 81.4428 148.635 81.7254 148.065 82.2881C147.495 82.8521 147.166 83.5188 147.081 84.2908C147.003 84.9788 146.966 85.4388 146.966 85.6668C146.966 87.0961 147.339 88.2068 148.087 88.9974C148.623 89.5828 149.294 89.8748 150.099 89.8748C150.186 89.8748 150.349 89.8588 150.589 89.8281C151.086 89.7654 151.485 89.6241 151.782 89.4054L151.911 89.3108L152.185 89.1228L152.501 88.9828C152.549 88.9721 152.597 88.9668 152.645 88.9668C152.826 88.9668 152.985 89.0508 153.118 89.2174C153.253 89.3854 153.321 89.5721 153.321 89.7801C153.321 90.0414 153.205 90.2801 152.975 90.4988C152.907 90.5614 152.691 90.7188 152.329 90.9694C151.849 91.3028 151.101 91.4694 150.085 91.4694C148.619 91.4694 147.449 90.9068 146.578 89.7801C145.753 88.7174 145.341 87.3721 145.341 85.7454C145.341 85.3694 145.365 84.9988 145.413 84.6348" fill="#231F20"/>
<path d="M159.962 89.9681C160.959 89.9681 161.73 89.5308 162.277 88.6548C162.737 87.9028 162.966 86.9548 162.966 85.8081C162.966 84.4001 162.691 83.3081 162.139 82.5308C161.589 81.7548 160.849 81.3654 159.918 81.3654C158.922 81.3654 158.159 81.8348 157.633 82.7734C157.182 83.5548 156.957 84.5201 156.957 85.6668C156.957 86.8454 157.182 87.8201 157.633 88.5921C158.17 89.5094 158.946 89.9681 159.962 89.9681ZM159.99 79.8641C161.418 79.8641 162.565 80.4534 163.427 81.6321C164.231 82.7254 164.634 84.0708 164.634 85.6668C164.634 87.2734 164.237 88.6174 163.441 89.7028C162.578 90.8814 161.429 91.4694 159.99 91.4694C159.166 91.4694 158.471 91.3161 157.906 91.0081C157.341 90.7014 156.813 90.1761 156.325 89.4374C155.634 88.4148 155.29 87.1534 155.29 85.6521C155.29 84.1508 155.629 82.8881 156.31 81.8668C157.211 80.5321 158.438 79.8641 159.99 79.8641" fill="#231F20"/>
<path d="M176.737 80.1686C176.892 80.3419 176.969 80.5419 176.969 80.7713V90.6086C176.969 90.8499 176.895 91.0499 176.745 91.2113C176.595 91.3726 176.408 91.4539 176.185 91.4539C175.963 91.4539 175.777 91.3726 175.627 91.2113C175.477 91.0499 175.403 90.8499 175.403 90.6086V83.9299L173.548 90.7819C173.424 91.2299 173.179 91.4539 172.815 91.4539C172.393 91.4539 172.12 91.2246 171.995 90.7673L170.127 83.8366V90.6086C170.127 90.8499 170.051 91.0499 169.901 91.2113C169.752 91.3726 169.565 91.4539 169.343 91.4539C169.12 91.4539 168.933 91.3726 168.784 91.2113C168.633 91.0499 168.56 90.8499 168.56 90.6086V80.7713C168.56 80.1979 168.893 79.9113 169.561 79.9113C170.172 79.9113 170.559 80.2166 170.724 80.8259L172.773 88.4953L174.82 80.8259C174.984 80.2166 175.367 79.9113 175.967 79.9113C176.325 79.9113 176.583 79.9966 176.737 80.1686Z" fill="#231F20"/>
<path d="M180.334 80.9121C180.334 80.6628 180.41 80.4534 180.563 80.2868C180.717 80.1201 180.909 80.0361 181.139 80.0361H184.79C184.993 80.0361 185.158 80.1081 185.286 80.2534C185.417 80.3974 185.481 80.5788 185.481 80.7948C185.481 81.0121 185.414 81.1948 185.278 81.3441C185.143 81.4948 184.975 81.5694 184.774 81.5694H181.901V84.9001H184.586C184.789 84.9001 184.962 84.9761 185.106 85.1268C185.25 85.2774 185.322 85.4641 185.322 85.6828C185.322 85.8908 185.251 86.0681 185.107 86.2148C184.963 86.3601 184.795 86.4334 184.603 86.4334H181.901V89.7654H184.906C185.107 89.7654 185.277 89.8401 185.417 89.9921C185.555 90.1428 185.625 90.3281 185.625 90.5468C185.625 90.7668 185.555 90.9454 185.417 91.0868C185.277 91.2268 185.107 91.2974 184.906 91.2974H181.125C180.885 91.2974 180.694 91.2148 180.55 91.0481C180.406 90.8814 180.334 90.6668 180.334 90.4054V80.9121Z" fill="#231F20"/>
<path d="M191.871 85.1504C192.334 85.1504 192.718 84.9757 193.026 84.6237C193.334 84.2744 193.488 83.8464 193.488 83.345C193.488 82.8424 193.312 82.4197 192.96 82.0797C192.61 81.7384 192.199 81.569 191.727 81.569H190.01V85.1504H191.871ZM188.442 80.913C188.442 80.6637 188.518 80.4544 188.672 80.2877C188.824 80.121 189.016 80.0357 189.247 80.0357H191.748C192.41 80.0357 193.042 80.2237 193.647 80.5997C194.327 81.0157 194.739 81.5544 194.883 82.2104C194.998 82.733 195.055 83.1437 195.055 83.4464C195.055 84.3117 194.796 85.0197 194.279 85.573C193.723 86.1677 193.042 86.449 192.238 86.417H191.791L194.955 90.081C195.088 90.237 195.155 90.4197 195.155 90.6277C195.155 90.845 195.06 91.0597 194.868 91.2664C194.754 91.3917 194.595 91.4544 194.394 91.4544C194.154 91.4544 193.948 91.3437 193.775 91.1224L190.01 86.417V90.617C190.01 90.8584 189.935 91.0597 189.787 91.217C189.638 91.3744 189.454 91.4544 189.232 91.4544C189.012 91.4544 188.824 91.3704 188.672 91.2037C188.518 91.0357 188.442 90.833 188.442 90.593V80.913Z" fill="#231F20"/>
<path d="M197.974 84.6348C198.157 83.2174 198.65 82.0801 199.455 81.2241C200.307 80.3188 201.377 79.8641 202.661 79.8641C203.322 79.8641 203.941 79.9841 204.515 80.2228C205.302 80.5481 205.695 81.0108 205.695 81.6161C205.695 82.0961 205.483 82.3348 205.062 82.3348C204.909 82.3348 204.746 82.2881 204.573 82.1948L204.487 82.1481L204.113 81.8974C203.931 81.7734 203.701 81.6628 203.422 81.5694L202.991 81.4748C202.799 81.4534 202.657 81.4428 202.561 81.4428C201.841 81.4428 201.197 81.7254 200.626 82.2881C200.057 82.8521 199.727 83.5188 199.642 84.2908C199.565 84.9788 199.527 85.4388 199.527 85.6668C199.527 87.0961 199.901 88.2068 200.649 88.9974C201.185 89.5828 201.855 89.8748 202.661 89.8748C202.747 89.8748 202.91 89.8588 203.15 89.8281C203.647 89.7654 204.046 89.6241 204.343 89.4054L204.473 89.3108L204.746 89.1228L205.062 88.9828C205.11 88.9721 205.158 88.9668 205.206 88.9668C205.387 88.9668 205.546 89.0508 205.679 89.2174C205.814 89.3854 205.882 89.5721 205.882 89.7801C205.882 90.0414 205.766 90.2801 205.537 90.4988C205.469 90.5614 205.253 90.7188 204.89 90.9694C204.41 91.3028 203.662 91.4694 202.646 91.4694C201.181 91.4694 200.01 90.9068 199.139 89.7801C198.314 88.7174 197.902 87.3721 197.902 85.7454C197.902 85.3694 197.926 84.9988 197.974 84.6348" fill="#231F20"/>
<path d="M208.196 80.7858C208.196 80.5458 208.273 80.3458 208.428 80.1845C208.582 80.0232 208.772 79.9418 208.994 79.9418C209.206 79.9418 209.388 80.0258 209.537 80.1925C209.688 80.3592 209.762 80.5565 209.762 80.7858V90.6098C209.762 90.8498 209.688 91.0498 209.537 91.2112C209.388 91.3725 209.201 91.4538 208.978 91.4538C208.756 91.4538 208.57 91.3725 208.42 91.2112C208.27 91.0498 208.196 90.8498 208.196 90.6098V80.7858Z" fill="#231F20"/>
<path d="M218.616 87.4656L216.807 81.8109L214.964 87.4656H218.616ZM215.656 80.9122C215.887 80.2349 216.255 79.8949 216.763 79.8949C217.319 79.8949 217.712 80.2349 217.943 80.9122L221.091 90.2029C221.148 90.3696 221.178 90.5362 221.178 90.7029C221.178 91.2042 220.918 91.4536 220.398 91.4536C220.071 91.4536 219.84 91.2576 219.706 90.8616L219.079 88.9669H214.528L213.891 90.8762C213.756 91.2616 213.516 91.4536 213.171 91.4536C212.652 91.4536 212.394 91.1776 212.394 90.6242C212.394 90.5096 212.422 90.3696 212.479 90.2029L215.656 80.9122Z" fill="#231F20"/>
<path d="M224.183 80.7585C224.183 80.5078 224.255 80.2998 224.399 80.1385C224.543 79.9772 224.729 79.8958 224.959 79.8958C225.131 79.8958 225.289 79.9572 225.433 80.0825C225.5 80.1238 225.557 80.1918 225.605 80.2865L230.911 88.4025V80.7572C230.911 80.5172 230.987 80.3132 231.136 80.1465C231.287 79.9785 231.471 79.8958 231.687 79.8958C231.893 79.8958 232.068 79.9785 232.209 80.1465C232.349 80.3132 232.42 80.5172 232.42 80.7572V90.6092C232.42 90.8385 232.356 91.0305 232.227 91.1878C232.099 91.3438 231.929 91.4332 231.719 91.4532C231.424 91.4532 231.195 91.3278 231.032 91.0732L225.749 83.0158V90.6132C225.749 90.8518 225.677 91.0518 225.532 91.2132C225.387 91.3732 225.203 91.4532 224.981 91.4532C224.759 91.4532 224.569 91.3705 224.415 91.2025C224.26 91.0358 224.183 90.8318 224.183 90.5918V80.7585Z" fill="#231F20"/>
<path d="M240.874 80.0359C241.075 80.0359 241.243 80.1119 241.376 80.2612C241.511 80.4105 241.578 80.5932 241.578 80.8105C241.578 81.0265 241.508 81.2079 241.37 81.3519C241.231 81.4972 241.06 81.5692 240.859 81.5692H238.976V90.5625C238.976 90.8025 238.904 91.0039 238.76 91.1652C238.616 91.3265 238.434 91.4065 238.214 91.4065C237.984 91.4065 237.796 91.3265 237.654 91.1652C237.51 91.0039 237.438 90.7972 237.438 90.5492V81.5692H235.568C235.367 81.5692 235.202 81.4945 235.072 81.3412C234.943 81.1905 234.879 81.0065 234.879 80.7865C234.879 80.5679 234.946 80.3892 235.08 80.2465C235.214 80.1065 235.382 80.0359 235.583 80.0359H240.874Z" fill="#231F20"/>
<path d="M244.381 80.9121C244.381 80.6628 244.457 80.4534 244.611 80.2868C244.764 80.1201 244.956 80.0361 245.187 80.0361H248.837C249.04 80.0361 249.205 80.1081 249.333 80.2534C249.464 80.3974 249.528 80.5788 249.528 80.7948C249.528 81.0121 249.461 81.1948 249.325 81.3441C249.191 81.4948 249.023 81.5694 248.821 81.5694H245.948V84.9001H248.633C248.836 84.9001 249.009 84.9761 249.153 85.1268C249.297 85.2774 249.369 85.4641 249.369 85.6828C249.369 85.8908 249.299 86.0681 249.155 86.2148C249.011 86.3601 248.843 86.4334 248.651 86.4334H245.948V89.7654H248.953C249.155 89.7654 249.324 89.8401 249.464 89.9921C249.603 90.1428 249.672 90.3281 249.672 90.5468C249.672 90.7668 249.603 90.9454 249.464 91.0868C249.324 91.2268 249.155 91.2974 248.953 91.2974H245.172C244.932 91.2974 244.741 91.2148 244.597 91.0481C244.453 90.8814 244.381 90.6668 244.381 90.4054V80.9121Z" fill="#231F20"/>
<path d="M252.044 89.7181C252.131 89.3101 252.355 89.1074 252.72 89.1074C252.892 89.1074 253.045 89.1434 253.18 89.2167L253.525 89.4061L253.683 89.4834C254.191 89.7341 254.684 89.8581 255.164 89.8581C255.7 89.8581 256.151 89.6794 256.516 89.3194C256.879 88.9594 257.061 88.4874 257.061 87.9047C257.061 87.1634 256.601 86.6274 255.681 86.2941L254.431 85.8407C253.836 85.6207 253.348 85.3447 252.964 85.0114C252.715 84.8021 252.516 84.5101 252.368 84.1354C252.219 83.7594 252.145 83.3887 252.145 83.0234C252.145 82.0327 252.499 81.2514 253.209 80.6781C253.851 80.1461 254.593 79.8794 255.437 79.8794C255.945 79.8794 256.444 79.9781 256.932 80.1767C257.66 80.4794 258.025 80.8501 258.025 81.2874C258.025 81.8194 257.791 82.0847 257.321 82.0847C257.196 82.0847 257.072 82.0541 256.947 81.9914L256.631 81.8354L256.4 81.7101L256.241 81.6474L256.055 81.5701C255.853 81.4861 255.624 81.4434 255.365 81.4434C254.972 81.4434 254.617 81.5754 254.301 81.8354C253.956 82.1274 253.784 82.4754 253.784 82.8834C253.784 83.4354 254.091 83.8527 254.704 84.1341C254.828 84.1874 255.068 84.2861 255.423 84.4314L255.883 84.6194L256.271 84.7594C257.872 85.3447 258.672 86.3394 258.672 87.7461V88.1541L258.572 88.7007C258.399 89.5567 257.953 90.2541 257.235 90.7981C256.668 91.2247 256.003 91.4381 255.236 91.4381C254.259 91.4381 253.448 91.2501 252.807 90.8754C252.327 90.6047 252.068 90.2967 252.029 89.9527L252.044 89.7181Z" fill="#231F20"/>
<path d="M275.519 80.1686C275.673 80.3419 275.751 80.5419 275.751 80.7713V90.6086C275.751 90.8499 275.676 91.0499 275.527 91.2113C275.376 91.3726 275.189 91.4539 274.967 91.4539C274.744 91.4539 274.559 91.3726 274.408 91.2113C274.259 91.0499 274.184 90.8499 274.184 90.6086V83.9299L272.329 90.7819C272.205 91.2299 271.96 91.4539 271.596 91.4539C271.175 91.4539 270.901 91.2246 270.776 90.7673L268.908 83.8366V90.6086C268.908 90.8499 268.832 91.0499 268.683 91.2113C268.533 91.3726 268.347 91.4539 268.124 91.4539C267.901 91.4539 267.715 91.3726 267.565 91.2113C267.415 91.0499 267.341 90.8499 267.341 90.6086V80.7713C267.341 80.1979 267.675 79.9113 268.343 79.9113C268.953 79.9113 269.34 80.2166 269.505 80.8259L271.555 88.4953L273.601 80.8259C273.765 80.2166 274.148 79.9113 274.748 79.9113C275.107 79.9113 275.364 79.9966 275.519 80.1686Z" fill="#231F20"/>
<path d="M279.115 80.9121C279.115 80.6628 279.191 80.4534 279.344 80.2868C279.498 80.1201 279.69 80.0361 279.92 80.0361H283.571C283.774 80.0361 283.939 80.1081 284.067 80.2534C284.198 80.3974 284.262 80.5788 284.262 80.7948C284.262 81.0121 284.195 81.1948 284.059 81.3441C283.924 81.4948 283.756 81.5694 283.555 81.5694H280.682V84.9001H283.367C283.57 84.9001 283.743 84.9761 283.887 85.1268C284.031 85.2774 284.103 85.4641 284.103 85.6828C284.103 85.8908 284.032 86.0681 283.888 86.2148C283.744 86.3601 283.576 86.4334 283.384 86.4334H280.682V89.7654H283.687C283.888 89.7654 284.058 89.8401 284.198 89.9921C284.336 90.1428 284.406 90.3281 284.406 90.5468C284.406 90.7668 284.336 90.9454 284.198 91.0868C284.058 91.2268 283.888 91.2974 283.687 91.2974H279.906C279.666 91.2974 279.475 91.2148 279.331 91.0481C279.187 90.8814 279.115 90.6668 279.115 90.4054V80.9121Z" fill="#231F20"/>
<path d="M290.653 85.1504C291.116 85.1504 291.5 84.9757 291.808 84.6237C292.116 84.2744 292.27 83.8464 292.27 83.345C292.27 82.8424 292.094 82.4197 291.742 82.0797C291.392 81.7384 290.981 81.569 290.509 81.569H288.792V85.1504H290.653ZM287.224 80.913C287.224 80.6637 287.3 80.4544 287.454 80.2877C287.606 80.121 287.798 80.0357 288.029 80.0357H290.53C291.192 80.0357 291.824 80.2237 292.429 80.5997C293.109 81.0157 293.521 81.5544 293.665 82.2104C293.78 82.733 293.837 83.1437 293.837 83.4464C293.837 84.3117 293.578 85.0197 293.061 85.573C292.505 86.1677 291.824 86.449 291.02 86.417H290.573L293.737 90.081C293.87 90.237 293.937 90.4197 293.937 90.6277C293.937 90.845 293.842 91.0597 293.65 91.2664C293.536 91.3917 293.377 91.4544 293.176 91.4544C292.936 91.4544 292.73 91.3437 292.557 91.1224L288.792 86.417V90.617C288.792 90.8584 288.717 91.0597 288.569 91.217C288.42 91.3744 288.236 91.4544 288.014 91.4544C287.794 91.4544 287.606 91.3704 287.454 91.2037C287.3 91.0357 287.224 90.833 287.224 90.593V80.913Z" fill="#231F20"/>
<path d="M296.755 84.6348C296.938 83.2174 297.431 82.0801 298.236 81.2241C299.088 80.3188 300.158 79.8641 301.442 79.8641C302.103 79.8641 302.722 79.9841 303.296 80.2228C304.083 80.5481 304.476 81.0108 304.476 81.6161C304.476 82.0961 304.264 82.3348 303.843 82.3348C303.69 82.3348 303.527 82.2881 303.354 82.1948L303.268 82.1481L302.894 81.8974C302.712 81.7734 302.482 81.6628 302.203 81.5694L301.772 81.4748C301.58 81.4534 301.438 81.4428 301.342 81.4428C300.622 81.4428 299.978 81.7254 299.407 82.2881C298.838 82.8521 298.508 83.5188 298.423 84.2908C298.346 84.9788 298.308 85.4388 298.308 85.6668C298.308 87.0961 298.682 88.2068 299.43 88.9974C299.966 89.5828 300.636 89.8748 301.442 89.8748C301.528 89.8748 301.691 89.8588 301.931 89.8281C302.428 89.7654 302.827 89.6241 303.124 89.4054L303.254 89.3108L303.527 89.1228L303.843 88.9828C303.891 88.9721 303.939 88.9668 303.987 88.9668C304.168 88.9668 304.327 89.0508 304.46 89.2174C304.595 89.3854 304.663 89.5721 304.663 89.7801C304.663 90.0414 304.547 90.2801 304.318 90.4988C304.25 90.5614 304.034 90.7188 303.671 90.9694C303.191 91.3028 302.443 91.4694 301.427 91.4694C299.962 91.4694 298.791 90.9068 297.92 89.7801C297.095 88.7174 296.683 87.3721 296.683 85.7454C296.683 85.3694 296.707 84.9988 296.755 84.6348" fill="#231F20"/>
<path d="M312.481 87.4656L310.672 81.8109L308.829 87.4656H312.481ZM309.521 80.9122C309.752 80.2349 310.12 79.8949 310.628 79.8949C311.184 79.8949 311.577 80.2349 311.808 80.9122L314.956 90.2029C315.013 90.3696 315.042 90.5362 315.042 90.7029C315.042 91.2042 314.782 91.4536 314.262 91.4536C313.936 91.4536 313.705 91.2576 313.57 90.8616L312.944 88.9669H308.393L307.756 90.8762C307.621 91.2616 307.381 91.4536 307.036 91.4536C306.517 91.4536 306.258 91.1776 306.258 90.6242C306.258 90.5096 306.286 90.3696 306.344 90.2029L309.521 80.9122Z" fill="#231F20"/>
<path d="M318.047 80.7585C318.047 80.5078 318.119 80.2998 318.263 80.1385C318.407 79.9772 318.594 79.8958 318.823 79.8958C318.995 79.8958 319.154 79.9572 319.298 80.0825C319.365 80.1238 319.422 80.1918 319.47 80.2865L324.775 88.4025V80.7572C324.775 80.5172 324.851 80.3132 325.001 80.1465C325.151 79.9785 325.335 79.8958 325.551 79.8958C325.758 79.8958 325.933 79.9785 326.074 80.1465C326.214 80.3132 326.285 80.5172 326.285 80.7572V90.6092C326.285 90.8385 326.221 91.0305 326.091 91.1878C325.963 91.3438 325.794 91.4332 325.583 91.4532C325.289 91.4532 325.059 91.3278 324.897 91.0732L319.614 83.0158V90.6132C319.614 90.8518 319.542 91.0518 319.397 91.2132C319.251 91.3732 319.067 91.4532 318.846 91.4532C318.623 91.4532 318.434 91.3705 318.279 91.2025C318.125 91.0358 318.047 90.8318 318.047 90.5918V80.7585Z" fill="#231F20"/>
<path d="M334.738 80.0359C334.939 80.0359 335.107 80.1119 335.241 80.2612C335.375 80.4105 335.442 80.5932 335.442 80.8105C335.442 81.0265 335.373 81.2079 335.234 81.3519C335.095 81.4972 334.925 81.5692 334.723 81.5692H332.841V90.5625C332.841 90.8025 332.769 91.0039 332.625 91.1652C332.481 91.3265 332.298 91.4065 332.078 91.4065C331.849 91.4065 331.661 91.3265 331.518 91.1652C331.374 91.0039 331.302 90.7972 331.302 90.5492V81.5692H329.433C329.231 81.5692 329.066 81.4945 328.937 81.3412C328.807 81.1905 328.743 81.0065 328.743 80.7865C328.743 80.5679 328.81 80.3892 328.945 80.2465C329.078 80.1065 329.246 80.0359 329.447 80.0359H334.738Z" fill="#231F20"/>
<path d="M338.232 80.7858C338.232 80.5458 338.309 80.3458 338.464 80.1845C338.618 80.0232 338.808 79.9418 339.03 79.9418C339.242 79.9418 339.424 80.0258 339.573 80.1925C339.724 80.3592 339.798 80.5565 339.798 80.7858V90.6098C339.798 90.8498 339.724 91.0498 339.573 91.2112C339.424 91.3725 339.237 91.4538 339.014 91.4538C338.792 91.4538 338.606 91.3725 338.456 91.2112C338.306 91.0498 338.232 90.8498 338.232 90.6098V80.7858Z" fill="#231F20"/>
<path d="M343.163 80.7715C343.163 80.5315 343.241 80.3289 343.395 80.1609C343.55 79.9942 343.739 79.9102 343.962 79.9102C344.174 79.9102 344.355 79.9942 344.505 80.1622C344.655 80.3289 344.73 80.5262 344.73 80.7569V89.7649H347.393C347.594 89.7649 347.773 89.8395 347.93 89.9889C348.087 90.1382 348.166 90.3222 348.166 90.5382C348.166 90.7555 348.091 90.9369 347.943 91.0809C347.795 91.2262 347.619 91.2982 347.418 91.2982H344.083C343.719 91.2982 343.474 91.2035 343.35 91.0169C343.225 90.8289 343.163 90.6049 343.163 90.3435V80.7715Z" fill="#231F20"/>
<path d="M350.898 80.9121C350.898 80.6628 350.974 80.4534 351.127 80.2868C351.28 80.1201 351.472 80.0361 351.703 80.0361H355.354C355.556 80.0361 355.722 80.1081 355.85 80.2534C355.98 80.3974 356.044 80.5788 356.044 80.7948C356.044 81.0121 355.978 81.1948 355.842 81.3441C355.707 81.4948 355.539 81.5694 355.338 81.5694H352.464V84.9001H355.15C355.352 84.9001 355.526 84.9761 355.67 85.1268C355.814 85.2774 355.886 85.4641 355.886 85.6828C355.886 85.8908 355.815 86.0681 355.671 86.2148C355.527 86.3601 355.359 86.4334 355.167 86.4334H352.464V89.7654H355.47C355.671 89.7654 355.84 89.8401 355.98 89.9921C356.119 90.1428 356.188 90.3281 356.188 90.5468C356.188 90.7668 356.119 90.9454 355.98 91.0868C355.84 91.2268 355.671 91.2974 355.47 91.2974H351.688C351.448 91.2974 351.258 91.2148 351.114 91.0481C350.97 90.8814 350.898 90.6668 350.898 90.4054V80.9121Z" fill="#231F20"/>
<path d="M358.56 89.7181C358.646 89.3101 358.87 89.1074 359.236 89.1074C359.408 89.1074 359.561 89.1434 359.696 89.2167L360.041 89.4061L360.198 89.4834C360.706 89.7341 361.2 89.8581 361.68 89.8581C362.216 89.8581 362.666 89.6794 363.032 89.3194C363.394 88.9594 363.577 88.4874 363.577 87.9047C363.577 87.1634 363.117 86.6274 362.197 86.2941L360.946 85.8407C360.352 85.6207 359.864 85.3447 359.48 85.0114C359.23 84.8021 359.032 84.5101 358.884 84.1354C358.734 83.7594 358.661 83.3887 358.661 83.0234C358.661 82.0327 359.014 81.2514 359.725 80.6781C360.366 80.1461 361.109 79.8794 361.953 79.8794C362.461 79.8794 362.96 79.9781 363.448 80.1767C364.176 80.4794 364.541 80.8501 364.541 81.2874C364.541 81.8194 364.306 82.0847 363.837 82.0847C363.712 82.0847 363.588 82.0541 363.462 81.9914L363.146 81.8354L362.916 81.7101L362.757 81.6474L362.57 81.5701C362.369 81.4861 362.14 81.4434 361.881 81.4434C361.488 81.4434 361.133 81.5754 360.817 81.8354C360.472 82.1274 360.3 82.4754 360.3 82.8834C360.3 83.4354 360.606 83.8527 361.22 84.1341C361.344 84.1874 361.584 84.2861 361.938 84.4314L362.398 84.6194L362.786 84.7594C364.388 85.3447 365.188 86.3394 365.188 87.7461V88.1541L365.088 88.7007C364.914 89.5567 364.469 90.2541 363.75 90.7981C363.184 91.2247 362.518 91.4381 361.752 91.4381C360.774 91.4381 359.964 91.2501 359.322 90.8754C358.842 90.6047 358.584 90.2967 358.545 89.9527L358.56 89.7181Z" fill="#231F20"/>
<path d="M376.023 89.765C376.777 89.765 377.439 89.4997 378.008 88.9677C378.577 88.4384 378.904 87.7664 378.991 86.9557C379.067 86.257 379.105 85.7797 379.105 85.5184C379.105 84.4157 378.847 83.4997 378.331 82.7717C377.767 81.969 376.993 81.5704 376.008 81.5704H374.245V89.765H376.023ZM372.679 80.865C372.679 80.313 372.937 80.0357 373.456 80.0357H376.063C377.484 80.0357 378.631 80.569 379.505 81.6317C380.349 82.653 380.772 83.941 380.772 85.4957C380.772 87.4757 380.24 88.9984 379.176 90.0624C378.352 90.8864 377.323 91.297 376.085 91.297H373.512C373.272 91.297 373.073 91.2224 372.915 91.0704C372.757 90.9197 372.679 90.7197 372.679 90.4677V80.865Z" fill="#231F20"/>
<path d="M383.748 80.9121C383.748 80.6628 383.824 80.4534 383.977 80.2868C384.131 80.1201 384.323 80.0361 384.553 80.0361H388.204C388.407 80.0361 388.572 80.1081 388.7 80.2534C388.831 80.3974 388.895 80.5788 388.895 80.7948C388.895 81.0121 388.828 81.1948 388.692 81.3441C388.557 81.4948 388.389 81.5694 388.188 81.5694H385.315V84.9001H388C388.203 84.9001 388.376 84.9761 388.52 85.1268C388.664 85.2774 388.736 85.4641 388.736 85.6828C388.736 85.8908 388.665 86.0681 388.521 86.2148C388.377 86.3601 388.209 86.4334 388.017 86.4334H385.315V89.7654H388.32C388.521 89.7654 388.691 89.8401 388.831 89.9921C388.969 90.1428 389.039 90.3281 389.039 90.5468C389.039 90.7668 388.969 90.9454 388.831 91.0868C388.691 91.2268 388.521 91.2974 388.32 91.2974H384.539C384.299 91.2974 384.108 91.2148 383.964 91.0481C383.82 90.8814 383.748 90.6668 383.748 90.4054V80.9121Z" fill="#231F20"/>
<path d="M402.22 87.4656L400.411 81.8109L398.568 87.4656H402.22ZM399.26 80.9122C399.491 80.2349 399.859 79.8949 400.367 79.8949C400.923 79.8949 401.316 80.2349 401.547 80.9122L404.695 90.2029C404.752 90.3696 404.781 90.5362 404.781 90.7029C404.781 91.2042 404.521 91.4536 404.001 91.4536C403.675 91.4536 403.444 91.2576 403.309 90.8616L402.683 88.9669H398.132L397.495 90.8762C397.36 91.2616 397.12 91.4536 396.775 91.4536C396.256 91.4536 395.997 91.1776 395.997 90.6242C395.997 90.5096 396.025 90.3696 396.083 90.2029L399.26 80.9122Z" fill="#231F20"/>
<path d="M411.265 89.7962C411.754 89.7962 412.173 89.6216 412.522 89.2709C412.873 88.9229 413.048 88.4882 413.048 87.9656C413.048 87.4442 412.873 87.0042 412.522 86.6442C412.173 86.2842 411.758 86.1042 411.28 86.1042H409.353V89.7962H411.265ZM410.574 84.7122C411.016 84.7122 411.406 84.5642 411.746 84.2682C412.086 83.9736 412.257 83.5922 412.257 83.1256C412.257 82.6896 412.098 82.3216 411.782 82.0202C411.466 81.7189 411.106 81.5696 410.705 81.5696H409.353V84.7122H410.574ZM407.786 80.8656C407.786 80.3136 408.058 80.0362 408.605 80.0362H410.862C411.457 80.0362 412.026 80.2042 412.573 80.5376C413.186 80.9122 413.55 81.3909 413.666 81.9762C413.752 82.4242 413.794 82.7642 413.794 82.9922C413.794 83.9202 413.441 84.6082 412.732 85.0562L412.43 85.1976C413.177 85.2802 413.781 85.6936 414.241 86.4336C414.49 86.8296 414.614 87.3402 414.614 87.9656C414.614 89.0496 414.256 89.9109 413.537 90.5456C412.97 91.0469 412.281 91.2976 411.466 91.2976H408.62C408.064 91.2976 407.786 91.0109 407.786 90.4362V80.8656Z" fill="#231F20"/>
<path d="M422.821 87.4656L421.012 81.8109L419.169 87.4656H422.821ZM419.861 80.9122C420.092 80.2349 420.46 79.8949 420.968 79.8949C421.524 79.8949 421.917 80.2349 422.148 80.9122L425.296 90.2029C425.353 90.3696 425.383 90.5362 425.383 90.7029C425.383 91.2042 425.123 91.4536 424.603 91.4536C424.276 91.4536 424.045 91.2576 423.911 90.8616L423.284 88.9669H418.733L418.096 90.8762C417.961 91.2616 417.721 91.4536 417.376 91.4536C416.857 91.4536 416.599 91.1776 416.599 90.6242C416.599 90.5096 416.627 90.3696 416.684 90.2029L419.861 80.9122Z" fill="#231F20"/>
<path d="M427.87 89.7181C427.956 89.3101 428.18 89.1074 428.546 89.1074C428.718 89.1074 428.871 89.1434 429.006 89.2167L429.351 89.4061L429.508 89.4834C430.016 89.7341 430.51 89.8581 430.99 89.8581C431.526 89.8581 431.976 89.6794 432.342 89.3194C432.704 88.9594 432.887 88.4874 432.887 87.9047C432.887 87.1634 432.427 86.6274 431.507 86.2941L430.256 85.8407C429.662 85.6207 429.174 85.3447 428.79 85.0114C428.54 84.8021 428.342 84.5101 428.194 84.1354C428.044 83.7594 427.971 83.3887 427.971 83.0234C427.971 82.0327 428.324 81.2514 429.035 80.6781C429.676 80.1461 430.419 79.8794 431.263 79.8794C431.771 79.8794 432.27 79.9781 432.758 80.1767C433.486 80.4794 433.851 80.8501 433.851 81.2874C433.851 81.8194 433.616 82.0847 433.147 82.0847C433.022 82.0847 432.898 82.0541 432.772 81.9914L432.456 81.8354L432.226 81.7101L432.067 81.6474L431.88 81.5701C431.679 81.4861 431.45 81.4434 431.191 81.4434C430.798 81.4434 430.443 81.5754 430.127 81.8354C429.782 82.1274 429.61 82.4754 429.61 82.8834C429.61 83.4354 429.916 83.8527 430.53 84.1341C430.654 84.1874 430.894 84.2861 431.248 84.4314L431.708 84.6194L432.096 84.7594C433.698 85.3447 434.498 86.3394 434.498 87.7461V88.1541L434.398 88.7007C434.224 89.5567 433.779 90.2541 433.06 90.7981C432.494 91.2247 431.828 91.4381 431.062 91.4381C430.084 91.4381 429.274 91.2501 428.632 90.8754C428.152 90.6047 427.894 90.2967 427.855 89.9527L427.87 89.7181Z" fill="#231F20"/>
<path d="M441.714 80.0359C441.914 80.0359 442.083 80.1119 442.217 80.2612C442.353 80.4105 442.418 80.5932 442.418 80.8105C442.418 81.0265 442.35 81.2079 442.21 81.3519C442.071 81.4972 441.902 81.5692 441.699 81.5692H439.815V90.5625C439.815 90.8025 439.745 91.0039 439.601 91.1652C439.457 91.3265 439.274 91.4065 439.055 91.4065C438.823 91.4065 438.637 91.3265 438.494 91.1652C438.35 91.0039 438.278 90.7972 438.278 90.5492V81.5692H436.409C436.207 81.5692 436.042 81.4945 435.913 81.3412C435.785 81.1905 435.719 81.0065 435.719 80.7865C435.719 80.5679 435.787 80.3892 435.919 80.2465C436.055 80.1065 436.222 80.0359 436.423 80.0359H441.714Z" fill="#231F20"/>
<path d="M448.76 89.9681C449.756 89.9681 450.528 89.5308 451.073 88.6548C451.534 87.9028 451.764 86.9548 451.764 85.8081C451.764 84.4001 451.489 83.3081 450.938 82.5308C450.386 81.7548 449.646 81.3654 448.717 81.3654C447.72 81.3654 446.957 81.8348 446.43 82.7734C445.98 83.5548 445.754 84.5201 445.754 85.6668C445.754 86.8454 445.98 87.8201 446.43 88.5921C446.966 89.5094 447.742 89.9681 448.76 89.9681ZM448.788 79.8641C450.217 79.8641 451.362 80.4534 452.225 81.6321C453.029 82.7254 453.432 84.0708 453.432 85.6668C453.432 87.2734 453.034 88.6174 452.238 89.7028C451.376 90.8814 450.226 91.4694 448.788 91.4694C447.964 91.4694 447.269 91.3161 446.704 91.0081C446.138 90.7014 445.61 90.1761 445.122 89.4374C444.433 88.4148 444.086 87.1534 444.086 85.6521C444.086 84.1508 444.428 82.8881 445.108 81.8668C446.009 80.5321 447.234 79.8641 448.788 79.8641" fill="#231F20"/>
<path d="M42.1243 85.0033C39.5163 85.0033 37.3963 87.126 37.3963 89.73C37.3963 92.338 39.5163 94.4567 42.1243 94.4567C44.7323 94.4567 46.851 92.338 46.851 89.73C46.851 87.126 44.7323 85.0033 42.1243 85.0033ZM42.1243 102.563C35.0457 102.563 29.2883 96.81 29.2883 89.73C29.2883 82.6527 35.0457 76.894 42.1243 76.894C49.2017 76.894 54.959 82.6527 54.959 89.73C54.959 96.81 49.2017 102.563 42.1243 102.563Z" fill="#302E2E"/>
<path d="M54.1333 51.7949H29.8333L40.816 33.1056H54.1333V51.7949ZM112.856 0.000239477H110.883H65.3973L56.748 9.72825V26.4829H34.5907L23.2413 49.1816L0 62.1522V92.4176H25.0893C24.9533 91.5362 24.8613 90.6362 24.8613 89.7136C24.8613 79.8656 32.8467 71.8776 42.696 71.8776C52.5467 71.8776 60.532 79.8656 60.532 89.7136C60.532 90.6362 60.4413 91.5362 60.3053 92.4176H62.4147H64.388H83.7653L132.235 0.000239477H112.856Z" fill="#302E2E"/>
<path d="M110.402 92.4173H136.415V42.44L110.402 92.4173Z" fill="#611229"/>
</svg>
